<svg version="1.1" id="Layer_1" xmlns="http://www.w3.org/2000/svg" xmlns:xlink="http://www.w3.org/1999/xlink" x="0px" y="0px"
	 width="100%" viewBox="0 0 354 798" enable-background="new 0 0 354 798" xml:space="preserve">
<path fill="#C2F2F2" opacity="1.000000" stroke="none" 
	d="
M1.000000,582.000000 
	C1.000000,388.387665 1.000000,194.775360 1.000000,1.081520 
	C118.912483,1.081520 236.825043,1.081520 355.000000,1.081520 
	C355.000000,194.691483 355.000000,388.383087 354.702057,582.687561 
	C346.420959,591.675964 336.601776,595.968750 325.073853,595.973877 
	C227.175156,596.017212 129.276413,596.003235 31.377708,595.968628 
	C29.076082,595.967773 26.754711,595.645325 24.476553,595.267761 
	C15.049115,593.705261 7.731476,588.360046 1.000000,582.000000 
M260.998474,74.003761 
	C260.998474,74.003761 260.940918,74.023384 260.659760,73.403641 
	C258.752258,72.732529 256.844757,72.061424 254.086334,71.247284 
	C252.077942,71.293602 250.069565,71.339912 247.333801,71.178917 
	C245.190338,72.429703 243.046890,73.680489 240.489975,75.153976 
	C240.233902,75.349556 240.048752,75.597977 239.255127,76.015533 
	C238.420105,75.596466 237.365524,75.366669 236.802307,74.713303 
	C235.988876,73.769684 235.531754,72.518929 234.018768,71.232681 
	C230.040878,71.355469 226.062973,71.478264 221.264374,71.420868 
	C220.155914,71.409836 219.047455,71.398804 217.086700,71.247169 
	C215.083649,71.324455 213.080597,71.401741 210.423126,71.359444 
	C209.007477,72.264366 207.591827,73.169289 205.590958,74.372177 
	C204.758530,75.595596 203.926102,76.819023 202.337357,78.224136 
	C201.955490,79.212151 201.613678,80.218063 201.181885,81.183754 
	C200.606720,82.470093 199.961578,83.725136 199.346497,84.993622 
	C198.836075,83.591949 197.884033,82.187180 197.893860,80.789162 
	C197.930679,75.545197 198.245514,70.301445 198.533218,65.061852 
	C198.642578,63.070000 198.551819,61.555565 195.030441,62.738308 
	C191.364578,62.771961 187.698700,62.805611 183.463196,62.539757 
	C180.010437,65.982574 182.617340,68.645126 185.172256,71.675369 
	C183.393005,71.675369 182.163574,71.675369 180.139160,71.365265 
	C175.817841,70.993996 171.754822,71.315956 168.452713,75.631599 
	C164.957855,78.934143 165.429276,83.293976 167.046463,86.720047 
	C169.080322,91.028908 173.209763,93.648468 178.342438,93.737549 
	C182.945312,93.817451 187.550629,93.755173 192.154861,93.761513 
	C199.728928,93.771935 199.723190,93.772652 201.301971,86.764664 
	C201.345276,86.572472 201.838333,86.481606 202.368164,86.223335 
	C206.778610,92.833344 213.512115,93.354988 221.347977,92.190666 
	C218.462036,97.259140 214.247696,96.593933 210.933975,95.723175 
	C205.735397,94.357109 204.842255,97.628670 202.407516,102.227814 
	C208.197418,102.862968 212.975082,103.748573 217.767975,103.840385 
	C229.025650,104.056023 235.019684,97.057251 233.481461,85.943916 
	C233.344986,84.957878 232.833435,83.915527 233.033188,83.018990 
	C233.274475,81.935944 234.088837,80.980568 234.655151,79.969925 
	C235.217117,80.843788 235.844147,81.683250 236.327942,82.598434 
	C237.447952,84.717186 238.146210,87.166183 239.640793,88.960388 
	C245.033203,95.433746 256.603607,95.094139 264.600891,90.537331 
	C265.143188,90.228355 265.670197,89.120552 265.517059,88.578339 
	C265.361115,88.026077 264.349518,87.347443 263.722931,87.357697 
	C260.432922,87.411491 257.146637,87.786636 253.858154,87.798500 
	C252.292740,87.804153 250.725296,87.251060 249.158783,86.951080 
	C249.264450,86.261253 249.370117,85.571434 249.475784,84.881607 
	C254.813858,84.881607 260.151947,84.881607 266.712891,84.881607 
	C264.714996,81.376266 268.439392,77.294304 262.995880,76.002350 
	C262.995880,76.002350 262.955200,76.010483 262.869751,75.389824 
	C262.239929,74.947144 261.610107,74.504471 260.998474,74.003761 
M138.012741,82.895676 
	C138.012741,82.895676 137.935242,82.807404 138.687485,82.715370 
	C141.028885,81.806763 143.370270,80.898155 145.872147,79.242477 
	C145.803787,78.487259 145.735428,77.732048 145.868469,76.333969 
	C145.880463,76.109741 145.892456,75.885506 146.665070,75.821503 
	C149.285263,79.116386 152.699158,81.884201 147.619308,86.420906 
	C144.834732,88.907753 147.702164,93.684875 151.560303,93.747192 
	C154.376633,93.792679 157.209610,93.570244 160.007614,93.801102 
	C163.856064,94.118637 165.684540,92.104622 164.587952,88.843506 
	C162.961334,84.006203 162.662979,79.358177 163.589828,74.414597 
	C163.740387,73.611633 162.113571,71.657806 161.241211,71.615402 
	C156.159241,71.368340 151.057281,71.532921 145.189514,71.248573 
	C142.866272,71.659531 140.543045,72.070488 137.627594,72.002220 
	C136.714813,71.714790 135.802032,71.427368 134.009003,71.108826 
	C131.375000,71.118294 128.740997,71.127762 125.301170,70.981392 
	C124.398605,69.209389 123.496040,67.437378 122.642075,64.961067 
	C121.596664,64.133759 120.554611,62.595142 119.505310,62.590176 
	C109.959496,62.544975 100.412415,62.767181 90.181816,63.093861 
	C88.658363,66.214035 88.884933,68.865707 92.905151,70.771622 
	C93.367836,70.824532 93.830513,70.877434 94.216202,71.811417 
	C93.908928,75.283592 93.824501,78.798561 93.170563,82.204170 
	C92.948959,83.358223 91.288322,84.235962 90.285301,85.239975 
	C89.432762,84.268570 88.013206,83.390846 87.834297,82.308136 
	C87.303345,79.094826 88.449463,74.571510 86.698555,72.878853 
	C84.894142,71.134468 80.453178,72.131294 77.168060,71.896912 
	C76.041245,71.816521 74.921295,71.639969 72.667892,71.373871 
	C74.545700,78.890526 74.228065,86.031998 72.564072,94.035507 
	C79.009697,92.573730 85.150589,96.453880 89.703773,91.121925 
	C96.041801,96.321526 103.379723,92.653572 111.124252,93.879410 
	C109.462570,90.994331 113.670273,87.181030 107.546700,86.422989 
	C107.165009,85.959747 106.783318,85.496506 106.684593,84.257454 
	C107.844795,83.351341 108.891533,82.209793 110.187431,81.585258 
	C113.477966,79.999451 114.114616,78.216255 110.356682,75.483521 
	C108.934776,74.551003 107.512871,73.618492 106.090965,72.685982 
	C107.570755,72.120110 109.038475,71.518639 110.537773,71.010330 
	C110.980995,70.860054 111.513367,70.972679 112.312378,71.386398 
	C112.728310,71.682755 113.144241,71.979111 114.144104,72.793716 
	C116.410324,73.060631 118.676544,73.327545 121.171341,74.295418 
	C121.850327,76.595596 119.744072,80.845161 125.422974,80.382378 
	C125.509338,81.175232 125.595711,81.968094 125.072037,83.094177 
	C124.154427,83.772339 123.189407,84.395622 122.328438,85.139351 
	C120.110588,87.055191 120.532288,91.867470 123.922997,93.151016 
	C127.747910,93.162590 131.584808,92.989891 135.394363,93.237549 
	C139.207306,93.485428 141.148483,92.219826 140.762848,87.523422 
	C140.129120,87.093994 139.495377,86.664566 138.329956,86.184662 
	C138.152985,86.165314 137.976013,86.145958 137.883377,85.348206 
	C137.927170,84.569839 137.970947,83.791481 138.012741,82.895676 
M256.013123,40.837608 
	C256.247498,42.792313 255.996063,44.978848 256.799286,46.662109 
	C260.542023,54.505501 265.913605,61.168213 272.687775,66.606377 
	C273.451752,67.219666 275.325439,67.012360 276.391144,66.533081 
	C277.500000,66.034393 278.192841,64.676414 279.170837,63.810802 
	C288.128448,55.882565 295.138214,47.068443 293.045990,33.210091 
	C293.311646,29.830208 291.976868,28.260153 288.403961,28.818377 
	C283.801819,29.537409 280.253723,27.462076 276.826538,24.594851 
	C275.916779,23.833733 273.602203,24.135027 272.221741,24.680342 
	C269.251495,25.853674 266.605316,28.270426 263.583160,28.806555 
	C255.913193,30.167215 255.857498,29.864756 255.996826,37.517487 
	C256.011841,38.343002 256.067657,39.167778 256.013123,40.837608 
M118.863258,194.938568 
	C118.843712,203.422089 118.994942,211.910782 118.739212,220.387177 
	C118.590858,225.304626 118.946655,229.920822 122.057465,234.728378 
	C122.524826,239.609604 126.467796,237.343323 129.427109,238.552826 
	C136.379318,242.355759 139.231232,246.991119 137.565292,253.276489 
	C136.747925,256.360260 137.950851,257.597198 139.859253,259.485504 
	C141.761276,261.367523 143.264832,263.927765 144.191299,266.465149 
	C146.394424,272.499054 142.800049,276.800110 139.021881,280.663391 
	C143.742172,292.190765 140.980682,298.148376 129.165192,302.238922 
	C128.775940,304.780487 128.377045,307.384918 127.406349,310.303833 
	C125.514557,312.091644 123.622757,313.879456 120.942764,315.887482 
	C116.661118,319.028687 118.881912,323.527191 119.028000,327.268524 
	C119.328476,334.963562 125.120415,339.876343 132.844330,339.890564 
	C147.625687,339.917755 162.407227,339.935150 177.188477,339.887909 
	C191.131592,339.843353 205.074448,339.710419 219.709839,339.782898 
	C227.443680,337.040619 230.286728,333.084839 230.287201,325.040863 
	C230.289551,286.327545 230.298340,247.614243 230.278549,208.900925 
	C230.276001,203.922729 230.120178,198.944580 230.109039,193.318832 
	C230.080399,192.885956 230.051758,192.453079 230.211502,191.095474 
	C230.235077,176.516571 230.326187,161.937332 230.256165,147.358871 
	C230.215973,138.994690 222.522659,132.756973 213.044525,133.747757 
	C186.401871,133.735031 159.759171,133.698227 133.116562,133.724899 
	C125.551750,133.732483 118.948120,139.920792 118.877472,147.526260 
	C118.739845,162.339890 118.954247,177.156784 118.942024,192.650558 
	C118.963593,193.104492 118.985168,193.558441 118.863258,194.938568 
M185.501190,375.916992 
	C181.273315,375.995422 177.695267,377.360107 177.185211,382.042877 
	C176.664658,386.821899 180.482010,387.939270 184.123703,389.040405 
	C185.837296,389.558563 187.427475,390.484863 189.344513,391.348267 
	C184.430328,397.879944 181.070358,387.651367 175.864975,392.241425 
	C177.887436,394.167175 179.519531,396.753387 181.827179,397.710052 
	C187.118759,399.903839 192.933548,397.532623 194.099045,393.412140 
	C195.289612,389.202911 193.170654,386.922302 186.256180,384.692596 
	C185.104645,384.321289 184.089645,383.437042 183.136047,382.640686 
	C182.997284,382.524811 183.530411,381.100586 183.799271,381.084991 
	C185.192810,381.004120 186.646912,380.995239 187.993866,381.319092 
	C189.829117,381.760345 191.586670,382.524780 194.028809,383.378235 
	C193.415146,377.523438 190.254028,376.275146 185.501190,375.916992 
M214.877960,398.101807 
	C217.570312,397.954468 220.262650,397.807129 223.356384,397.637848 
	C223.356384,394.234009 223.348831,390.945587 223.358276,387.657227 
	C223.370346,383.457550 220.745789,381.665619 217.081772,381.396851 
	C213.544373,381.137299 210.182159,381.777618 208.861542,386.899963 
	C212.184875,386.414825 214.897552,386.018799 217.610214,385.622803 
	C217.707794,386.105988 217.805374,386.589203 217.902954,387.072388 
	C214.436813,389.238861 207.358322,387.291504 208.391083,394.327637 
	C208.617310,395.868896 212.150421,396.924744 214.877960,398.101807 
M136.991989,383.607147 
	C135.529633,382.878357 134.139008,381.831207 132.591034,381.482361 
	C128.467072,380.553162 124.522820,383.080414 123.344368,387.112732 
	C122.034157,391.595947 124.214035,396.454987 128.166763,397.862000 
	C132.684311,399.470062 136.598740,397.820618 138.945831,392.642059 
	C136.619781,393.164185 134.820679,393.830597 133.001297,393.891602 
	C131.597427,393.938629 130.168106,393.225861 128.750092,392.850891 
	C128.896179,392.345276 129.042252,391.839630 129.188339,391.334015 
	C132.411438,391.160095 135.634537,390.986176 139.672302,390.768341 
	C138.807053,388.132324 138.161423,386.165405 136.991989,383.607147 
M153.724258,384.355927 
	C151.179306,392.523956 159.432907,390.391418 162.274445,394.179749 
	C159.292587,393.788635 156.310715,393.397522 152.692139,392.922882 
	C155.454956,398.033569 160.054108,399.753235 164.417877,397.485748 
	C166.017456,396.654572 167.843399,394.350983 167.785736,392.784637 
	C167.730042,391.271576 165.584595,389.539093 163.980164,388.467407 
	C162.539490,387.505157 160.586578,387.309845 158.859650,386.776184 
	C158.985504,386.287170 159.111359,385.798126 159.237213,385.309082 
	C161.913330,385.827911 164.589432,386.346710 167.813202,386.971680 
	C165.140549,380.552643 159.987946,379.651215 153.724258,384.355927 
M203.461411,379.840485 
	C201.947571,379.213715 200.433746,378.586914 198.919891,377.960144 
	C198.069489,380.360687 196.736740,382.718445 196.518692,385.175140 
	C196.338730,387.203064 197.859665,389.330017 197.959259,391.444519 
	C198.245453,397.520569 199.847473,398.874146 206.692551,397.480682 
	C205.952423,396.165802 204.895172,395.077667 204.759201,393.884552 
	C204.459000,391.250641 203.502808,387.473572 204.822525,386.117859 
	C207.895126,382.961578 205.646637,382.045044 203.461411,379.840485 
M107.643921,376.306976 
	C107.244354,383.409058 106.844788,390.511108 106.442596,397.659729 
	C111.971664,397.659729 116.361092,397.659729 121.045059,397.659729 
	C120.595222,390.659058 114.556175,395.921295 111.935654,392.239227 
	C111.935654,388.629028 111.831108,384.025146 111.976364,379.429169 
	C112.058479,376.830719 111.138023,375.701538 107.643921,376.306976 
M143.859146,378.031342 
	C142.973480,380.307922 141.532806,382.543793 141.361923,384.872803 
	C141.198730,387.097321 142.731659,389.397675 142.861954,391.701843 
	C143.195236,397.595337 144.646759,398.778992 151.408096,397.282715 
	C150.715530,396.100342 149.792862,395.156372 149.608124,394.085083 
	C149.150452,391.431122 147.976334,388.190765 149.002090,386.144409 
	C150.911392,382.335419 149.533493,378.754700 143.859146,378.031342 
M246.483368,380.925476 
	C246.232925,378.090851 243.973480,376.717804 242.222275,378.207184 
	C240.532028,379.644745 239.728378,382.666321 239.479477,385.089020 
	C239.272949,387.098999 240.831940,389.232849 240.924408,391.341858 
	C241.200317,397.633575 242.700668,398.896881 248.936081,397.336121 
	C248.904007,396.711426 249.137131,395.795410 248.796478,395.457092 
	C245.172638,391.858093 244.108124,388.378265 248.678879,384.635712 
	C248.913315,384.443756 247.705917,382.490875 246.483368,380.925476 
M233.110550,386.751129 
	C235.838928,385.933289 238.855667,385.272583 236.471817,381.899048 
	C232.915833,381.899048 229.849136,381.899048 226.599548,381.899048 
	C226.599548,387.237427 226.599548,392.444366 226.599548,397.795135 
	C228.387177,397.795135 229.817642,397.795135 231.427826,397.795135 
	C231.790573,394.156891 232.130859,390.743988 233.110550,386.751129 
M160.601212,62.292938 
	C157.477768,62.291763 154.324509,62.046165 151.247040,62.421749 
	C150.167267,62.553528 148.613327,64.134277 148.490311,65.194313 
	C148.378754,66.155785 149.857986,68.163712 150.740997,68.226273 
	C154.166550,68.468971 157.804688,68.726761 161.037247,67.817909 
	C164.185608,66.932732 164.318359,64.500183 160.601212,62.292938 
M74.430946,62.606720 
	C74.056122,63.274582 73.314537,63.971722 73.365135,64.605621 
	C73.733398,69.218842 77.753723,69.417511 80.630829,69.196846 
	C83.067085,69.009987 85.337791,66.664505 87.681755,65.274284 
	C86.663818,64.265083 85.729408,62.514606 84.611938,62.388680 
	C81.527206,62.041080 78.365952,62.372555 74.430946,62.606720 
z"/>
<path fill="#FFFFFF" opacity="1.000000" stroke="none" 
	d="
M1.000000,582.468628 
	C7.731476,588.360046 15.049115,593.705261 24.476553,595.267761 
	C26.754711,595.645325 29.076082,595.967773 31.377708,595.968628 
	C129.276413,596.003235 227.175156,596.017212 325.073853,595.973877 
	C336.601776,595.968750 346.420959,591.675964 354.702057,583.150208 
	C355.000000,654.959961 355.000000,726.919922 355.000000,798.939941 
	C237.105682,798.939941 119.211334,798.939941 1.000000,798.939941 
	C1.000000,726.979431 1.000000,654.958374 1.000000,582.468628 
M284.959015,778.257996 
	C284.093201,776.993408 283.448761,774.975464 282.309753,774.640747 
	C280.602417,774.139099 278.488403,774.596924 276.664520,775.084778 
	C275.662872,775.352844 274.206818,776.470154 274.150085,777.287415 
	C273.886108,781.091736 273.891144,784.935608 274.164612,788.739197 
	C274.221069,789.524414 275.762115,790.598328 276.753906,790.773071 
	C277.350525,790.878296 278.538147,789.626221 278.862885,788.760132 
	C279.247803,787.733459 279.080658,786.459290 278.995392,785.303955 
	C278.674042,780.950134 280.391632,778.599365 285.031830,779.863586 
	C284.976440,790.494629 289.149689,793.637390 299.845001,790.851807 
	C300.674377,790.635803 301.799103,789.391907 301.823883,788.595703 
	C301.999512,782.953430 302.049103,777.297852 301.801575,771.661316 
	C301.761627,770.750793 300.069183,769.263306 299.094971,769.225769 
	C298.117767,769.188110 296.750366,770.443420 296.169556,771.477722 
	C295.606415,772.480530 295.825775,773.922729 295.657806,775.611389 
	C290.450928,772.538208 287.630951,775.542603 284.959015,778.257996 
M13.323944,790.867065 
	C14.130695,787.348450 14.937448,783.829895 15.786732,780.125793 
	C16.834473,782.689392 17.657812,785.225525 18.899017,787.537415 
	C19.597775,788.838867 20.985924,789.770203 22.063532,790.868225 
	C22.947807,789.804443 24.050684,788.853638 24.670912,787.653381 
	C25.966370,785.146423 27.007086,782.507812 28.152454,779.923279 
	C28.987581,782.560303 28.673492,784.941345 29.104216,787.178894 
	C29.366722,788.542542 30.776587,789.685425 31.671097,790.927429 
	C32.447639,789.734253 33.823082,788.575562 33.894093,787.341736 
	C34.161022,782.703979 34.168892,778.032288 33.906502,773.394104 
	C33.823368,771.924683 32.919411,769.692505 31.820290,769.260010 
	C29.608236,768.389648 27.420946,768.889282 26.408281,771.883728 
	C25.294374,775.177490 23.617752,778.281067 21.799118,782.329285 
	C19.947767,777.971924 18.939165,774.548523 17.079981,771.675415 
	C16.181578,770.287048 13.732882,769.703247 11.869114,769.310791 
	C11.509806,769.235107 10.111231,771.719482 10.043509,773.065674 
	C9.810020,777.707031 9.767444,782.379456 10.068933,787.012939 
	C10.157138,788.368591 11.632537,789.633972 13.323944,790.867065 
M220.149307,777.090210 
	C221.795944,773.592896 224.253326,773.357971 227.544189,774.885620 
	C229.275513,775.689392 231.354553,775.744202 233.276596,776.137207 
	C233.590744,775.500122 233.904892,774.863037 234.219025,774.226013 
	C232.333740,772.721558 230.660904,770.707458 228.520432,769.815247 
	C223.541443,767.739807 218.840866,769.004395 216.358551,772.481140 
	C213.291428,776.776917 213.155594,783.708740 216.104568,787.497070 
	C219.225189,791.505737 223.597076,791.583496 227.932739,790.738892 
	C231.541245,790.035950 233.768661,787.406738 233.872147,783.679810 
	C233.913956,782.174255 232.910248,779.419434 232.161560,779.341064 
	C229.915237,779.105774 227.560104,779.909668 225.247437,780.308044 
	C226.256531,781.694824 227.265640,783.081543 229.058044,785.544800 
	C226.440750,785.544800 223.320267,786.377136 222.515930,785.366333 
	C220.982864,783.439758 220.771561,780.461365 220.149307,777.090210 
M70.195679,790.508606 
	C70.456314,785.411804 70.960960,780.310181 70.858665,775.220642 
	C70.817169,773.156189 69.453667,771.118347 68.691719,769.068359 
	C67.442924,770.889709 66.196564,772.712708 64.942467,774.530334 
	C64.771706,774.777893 64.562431,774.998840 64.370995,775.232117 
	C64.198303,774.792053 64.025612,774.351929 63.852921,773.911865 
	C61.297256,774.758911 58.032707,774.904846 56.345280,776.610718 
	C53.528347,779.458679 52.788166,783.748413 55.304737,787.155884 
	C56.704189,789.050659 59.614342,790.208374 62.064751,790.838440 
	C64.367500,791.430603 66.960922,790.892334 70.195679,790.508606 
M110.148834,790.953186 
	C114.598587,788.601929 116.297653,784.750488 114.661469,779.786316 
	C114.124901,778.158386 112.966385,776.118652 111.564583,775.535339 
	C109.386490,774.629028 106.756729,774.808105 104.124580,774.504761 
	C104.097328,774.159424 104.248108,773.391724 103.954895,772.877014 
	C103.198112,771.548706 102.245094,770.332153 101.370483,769.070923 
	C100.564835,770.413879 99.183792,771.707764 99.064316,773.109253 
	C98.740440,776.908569 99.123566,780.763245 98.906143,784.577759 
	C98.651733,789.041016 98.978310,792.382080 104.962387,790.447815 
	C106.231148,790.037720 107.873749,790.784180 110.148834,790.953186 
M203.210220,775.085083 
	C199.142670,773.593445 196.395187,775.008240 195.204376,779.060425 
	C193.689850,784.214172 195.422379,790.000244 198.960098,790.654663 
	C202.298004,791.272095 205.847931,791.037781 209.260025,790.711731 
	C209.943573,790.646484 210.870911,788.498718 210.922745,787.278748 
	C211.119507,782.647461 211.210526,777.988037 210.883774,773.371582 
	C210.778809,771.888672 209.262268,770.505737 208.391541,769.077026 
	C207.583633,770.401123 206.785934,771.731506 205.964325,773.046997 
	C205.390900,773.965210 207.420166,777.252808 203.210220,775.085083 
M141.086105,788.104126 
	C142.282120,789.050354 143.478134,789.996582 144.674149,790.942810 
	C145.446472,789.741089 146.797409,788.575745 146.875717,787.330383 
	C147.063004,784.352112 146.759735,781.666016 151.179504,781.903442 
	C152.664856,781.983337 154.232162,780.537964 155.762024,779.789734 
	C154.253616,779.191223 152.758209,778.555664 151.228683,778.017151 
	C150.784119,777.860657 150.111374,778.172363 149.769592,777.938538 
	C148.840256,777.302795 148.032059,776.489868 147.175858,775.747192 
	C148.022659,775.155090 148.796356,774.304321 149.735474,774.038879 
	C150.813293,773.734375 152.164993,774.264038 153.167145,773.859802 
	C154.498901,773.322510 155.607727,772.232727 156.812347,771.380371 
	C155.649948,770.590088 154.561737,769.302246 153.309311,769.115540 
	C150.875809,768.752563 148.340408,769.146851 145.864944,768.973816 
	C142.317322,768.725830 141.105103,770.608398 141.088409,773.751465 
	C141.064621,778.228882 141.075714,782.706360 141.086105,788.104126 
M260.445984,791.023621 
	C263.095520,791.001160 265.770081,791.178040 268.381165,790.849731 
	C269.312439,790.732544 270.661102,789.492859 270.822357,788.587952 
	C271.196869,786.486511 270.818848,784.264038 271.008057,782.113770 
	C271.404785,777.604187 269.071259,775.114807 265.012695,774.289734 
	C260.944000,773.462646 258.141693,775.414246 255.782242,780.085144 
	C259.407776,779.467285 262.038757,779.018921 264.669739,778.570557 
	C264.762390,779.092529 264.855011,779.614502 264.947662,780.136475 
	C263.182770,780.642883 261.146667,780.761230 259.722992,781.755981 
	C258.017670,782.947632 255.846848,784.821899 255.733887,786.523804 
	C255.640808,787.926697 258.253418,789.509216 260.445984,791.023621 
M317.094910,781.489197 
	C313.925415,782.066772 312.290344,784.000122 313.099426,787.115845 
	C313.472809,788.553711 314.902557,790.641541 316.055817,790.782898 
	C319.850891,791.248108 323.738556,790.958069 327.988281,790.958069 
	C327.988281,787.119507 327.934143,784.152344 328.001160,781.187927 
	C328.098419,776.882996 325.718506,774.721680 321.767517,774.231445 
	C317.774658,773.735901 314.920471,775.381042 313.088989,780.125671 
	C316.487549,779.546814 319.072784,779.106445 321.658020,778.666077 
	C321.740112,779.219727 321.822205,779.773438 321.904297,780.327148 
	C320.554321,780.630615 319.204346,780.934021 317.094910,781.489197 
M51.975704,787.197449 
	C51.975819,785.531372 51.842667,783.852478 52.001694,782.201660 
	C52.433266,777.721802 50.145252,775.185181 46.087700,774.299011 
	C41.986687,773.403503 39.251396,775.486084 36.577976,779.965393 
	C40.301525,779.548401 42.898476,779.257568 45.495430,778.966736 
	C45.474812,779.481201 45.454197,779.995667 45.433582,780.510132 
	C43.849037,780.886475 42.235878,781.171631 40.685825,781.657898 
	C37.289326,782.723328 35.044365,787.326355 37.465748,788.742737 
	C40.759388,790.669250 45.368423,790.489258 49.445019,790.808289 
	C50.209068,790.868103 51.121689,789.029968 51.975704,787.197449 
M87.771881,789.426147 
	C90.428596,785.061890 86.976807,786.250488 84.853966,786.205017 
	C83.059685,786.166565 81.266121,786.094299 79.472237,786.036987 
	C79.538887,785.469421 79.605545,784.901917 79.672195,784.334351 
	C82.992699,784.089417 86.313210,783.844482 89.651642,783.598206 
	C88.717247,777.309570 85.760345,774.061646 81.480133,774.074707 
	C77.560287,774.086670 73.844543,777.660889 73.227310,782.013184 
	C72.207909,789.201416 78.804245,792.937561 87.771881,789.426147 
M253.005249,781.548462 
	C253.003052,780.219971 253.325272,778.778015 252.910843,777.593811 
	C252.463593,776.315796 251.327286,775.278992 250.491562,774.136963 
	C249.657913,775.281982 248.371078,776.327637 248.093369,777.594543 
	C247.639816,779.663574 248.119476,781.939148 247.652451,784.002441 
	C247.424484,785.009521 245.949387,785.734314 245.038818,786.586914 
	C244.351501,785.614258 243.232178,784.708862 243.067947,783.654663 
	C242.739120,781.544067 243.292053,779.260559 242.774521,777.228271 
	C242.470291,776.033569 240.807861,775.184753 239.756332,774.180359 
	C238.857330,775.169250 237.362564,776.060486 237.181366,777.166931 
	C236.784042,779.593079 236.883636,782.141724 237.083405,784.615906 
	C237.503632,789.820251 240.529083,791.829773 245.624680,790.608765 
	C246.576218,790.380798 247.695557,790.373840 248.629623,790.641357 
	C251.534531,791.473633 253.175446,790.841858 253.014038,787.478943 
	C252.934509,785.822266 253.003525,784.158447 253.005249,781.548462 
M120.268951,775.053528 
	C119.033058,775.148987 117.797165,775.244507 116.218735,775.366516 
	C117.759064,779.909668 119.324677,783.911621 120.403404,788.040771 
	C120.784378,789.499084 120.072456,791.291992 119.677574,792.887085 
	C119.402901,793.996521 118.817810,795.029114 118.371422,796.096008 
	C119.602684,796.384827 121.077103,797.240417 122.012268,796.839233 
	C123.719940,796.106567 125.862419,794.941284 126.495796,793.408020 
	C128.879120,787.638306 130.727432,781.647644 132.837982,775.561401 
	C124.139259,773.056519 127.985329,782.068481 124.387123,783.967834 
	C123.255630,781.064453 122.132111,778.181580 120.268951,775.053528 
M158.541824,787.821289 
	C162.417114,791.753601 168.026169,792.345886 171.307419,789.169312 
	C174.578766,786.002319 175.073715,780.947205 172.052734,777.382751 
	C169.506805,774.378845 166.194626,773.025818 162.264206,774.925293 
	C157.631241,777.164368 156.173111,781.512512 158.541824,787.821289 
M175.992844,783.385132 
	C176.004700,787.690613 178.352066,790.253235 182.377747,790.920410 
	C185.916138,791.506775 190.194382,791.210205 191.294373,787.408997 
	C192.196808,784.290588 191.809631,779.932373 190.165497,777.240723 
	C189.021790,775.368347 184.727036,774.570557 181.935165,774.752625 
	C177.666977,775.031006 175.996979,778.433899 175.992844,783.385132 
M336.032562,786.426636 
	C336.035858,785.265320 335.690033,783.947144 336.124847,782.979858 
	C336.763428,781.559326 337.959961,780.389648 338.918823,779.113159 
	C339.916779,780.417297 341.343781,781.588745 341.799255,783.060730 
	C342.316803,784.733215 341.697205,786.736511 342.098877,788.474182 
	C342.318665,789.425049 343.618500,790.750000 344.445801,790.760498 
	C345.265533,790.770813 346.678192,789.431885 346.820312,788.526123 
	C347.176300,786.257629 347.030182,783.897217 346.960144,781.577515 
	C346.772400,775.363342 343.830292,773.373596 338.077332,775.497559 
	C337.488770,775.714905 336.702087,776.237305 336.315125,776.033630 
	C330.188385,772.807861 331.057495,777.324768 331.001587,780.787659 
	C330.966766,782.943787 330.733307,785.146484 331.094666,787.241028 
	C331.320618,788.550781 332.486938,789.698242 333.231354,790.918518 
	C334.164185,789.719177 335.096985,788.519836 336.032562,786.426636 
M308.371429,775.103149 
	C307.303497,775.595154 305.342560,776.033813 305.309448,776.587585 
	C305.054169,780.860535 305.094574,785.159058 305.274017,789.440002 
	C305.296082,789.966064 306.756439,790.917725 307.413727,790.813232 
	C308.314697,790.669983 309.802002,789.699585 309.797211,789.093506 
	C309.761261,784.536621 309.420380,779.982056 308.371429,775.103149 
z"/>
<path fill="#717171" opacity="1.000000" stroke="none" 
	d="
M219.017410,339.616333 
	C205.074448,339.710419 191.131592,339.843353 177.188477,339.887909 
	C162.407227,339.935150 147.625687,339.917755 132.844330,339.890564 
	C125.120415,339.876343 119.328476,334.963562 119.028000,327.268524 
	C118.881912,323.527191 116.661118,319.028687 121.650238,316.098694 
	C122.589149,319.262573 122.607910,322.256134 123.163361,325.146545 
	C123.367279,326.207642 124.787842,327.691345 125.750420,327.768280 
	C126.741074,327.847412 128.764801,326.440613 128.760208,325.693726 
	C128.727997,320.457550 128.287827,315.223846 127.978157,309.989380 
	C128.377045,307.384918 128.775940,304.780487 129.165192,302.238922 
	C140.980682,298.148376 143.742172,292.190765 139.021881,280.663391 
	C142.800049,276.800110 146.394424,272.499054 144.191299,266.465149 
	C143.264832,263.927765 141.761276,261.367523 139.859253,259.485504 
	C137.950851,257.597198 136.747925,256.360260 137.565292,253.276489 
	C139.231232,246.991119 136.379318,242.355759 129.197052,237.841949 
	C129.002136,222.781982 129.037292,208.432861 129.534058,194.058838 
	C159.671005,194.074249 189.346344,194.114578 219.016663,194.578934 
	C219.339874,203.288513 219.985352,211.575714 219.942474,219.859344 
	C219.735855,259.778870 219.343719,299.697418 219.017410,339.616333 
M196.039993,314.737549 
	C198.032150,319.226471 199.964844,319.876404 203.911133,317.311249 
	C202.948120,317.087128 202.045227,316.876984 200.828522,316.593811 
	C202.402832,316.003204 203.635910,315.540619 205.493591,314.843719 
	C202.151932,310.331665 199.085114,311.965302 195.789383,313.262207 
	C193.486008,312.852966 191.127563,311.960724 188.899841,312.214783 
	C187.553879,312.368286 186.410873,314.301056 185.176666,315.434357 
	C186.360092,316.303650 187.522705,317.203796 188.738342,318.025391 
	C189.159332,318.309845 189.711990,318.399445 191.034088,318.878906 
	C188.999985,319.676697 187.880020,320.115936 186.509476,320.653473 
	C191.800674,322.918396 194.252090,321.645844 195.029373,316.652496 
	C195.172363,315.733978 195.677750,314.871887 196.039993,314.737549 
M159.101761,312.727448 
	C159.370056,314.625000 159.638367,316.522552 159.909241,318.438263 
	C164.259354,321.354706 164.594543,315.553772 166.095047,315.033722 
	C168.310532,316.827026 169.881348,318.098511 171.452164,319.369995 
	C171.779388,312.006592 171.779388,312.005615 165.962799,312.003265 
	C163.639023,312.002319 161.315262,312.006622 158.966660,311.191620 
	C156.414719,306.724457 152.799133,309.774384 149.497345,309.307953 
	C149.497345,312.002136 149.497345,314.141663 149.497345,316.281189 
	C147.702881,314.320129 147.759949,310.300293 143.678268,312.592194 
	C143.678268,314.673065 143.678268,316.591492 143.678268,318.590149 
	C147.431229,318.590149 150.980301,318.590149 154.711060,318.590149 
	C154.853699,315.968170 154.976212,313.716461 155.096298,311.509094 
	C156.399918,311.669891 157.703903,311.830719 159.101761,312.727448 
M155.695541,213.698990 
	C156.844849,213.513657 157.994156,213.328308 159.143448,213.142960 
	C158.275162,212.019592 157.425873,211.554031 156.535599,211.454300 
	C149.530792,210.669647 142.525192,209.868698 135.501587,209.296753 
	C134.210587,209.191620 132.030060,209.768677 131.678268,210.618134 
	C131.049744,212.135880 131.501297,214.100906 131.501297,215.275391 
	C134.464203,214.891235 136.738586,214.596359 138.916977,214.947464 
	C139.002182,215.567200 139.073380,216.726593 139.174622,216.729233 
	C144.160614,216.858826 149.150787,216.943817 154.133667,216.799103 
	C154.444427,216.790054 154.700363,214.893768 155.695541,213.698990 
M189.034805,212.150726 
	C189.039230,211.892395 189.043671,211.634064 189.523041,210.863739 
	C189.523041,208.157318 189.523041,205.450897 189.523041,202.539673 
	C187.065964,202.539673 185.134628,202.539673 182.738510,201.991989 
	C179.930084,199.329697 177.942749,200.853363 175.384399,203.226685 
	C174.885147,203.270065 174.385895,203.313446 173.128967,203.145370 
	C170.183578,202.734467 168.477676,203.561386 169.238831,207.730789 
	C169.269318,208.781326 169.299805,209.831863 169.129745,211.790497 
	C169.149155,214.277893 168.914459,216.804901 169.293427,219.236252 
	C169.487625,220.482208 170.777283,222.549927 171.574692,222.551270 
	C177.583618,222.561325 183.593231,222.149750 189.787033,221.030212 
	C189.520630,218.328156 189.254227,215.626083 189.034805,212.150726 
M211.860855,307.187714 
	C215.278519,300.357086 214.892593,298.076660 209.485413,297.260315 
	C207.314926,296.932587 204.834869,298.655212 202.495712,299.444641 
	C203.714264,302.488190 204.546860,305.774628 206.264709,308.503937 
	C207.844437,311.013824 209.930328,309.775696 211.860855,307.187714 
M182.088577,318.908234 
	C185.539124,315.941711 182.287369,312.744598 182.406616,309.663422 
	C180.871994,310.355621 179.344971,311.065552 177.798035,311.729004 
	C177.347641,311.922150 176.646896,311.824310 176.394394,312.132812 
	C175.542969,313.173096 174.151688,314.412292 174.264267,315.432190 
	C174.393478,316.602631 175.708237,318.037262 176.872345,318.590790 
	C178.115311,319.181732 179.783646,318.878082 182.088577,318.908234 
z"/>
<path fill="#707170" opacity="1.000000" stroke="none" 
	d="
M119.022858,191.972336 
	C118.954247,177.156784 118.739845,162.339890 118.877472,147.526260 
	C118.948120,139.920792 125.551750,133.732483 133.116562,133.724899 
	C159.759171,133.698227 186.401871,133.735031 213.665024,134.143753 
	C218.081299,137.836105 219.193558,141.939163 219.102020,146.963486 
	C218.829605,161.912537 219.015778,176.869949 218.554199,191.875793 
	C188.422195,191.915695 158.758743,191.903900 129.055725,191.434601 
	C129.000565,179.644424 129.127380,168.309082 128.914307,156.980133 
	C128.792664,150.512589 128.835739,144.269943 135.024628,139.565887 
	C128.275146,139.276581 123.123917,144.876663 123.059319,151.905304 
	C122.936798,165.236084 122.952263,178.568161 122.522125,191.921936 
	C121.096832,191.953568 120.059845,191.962952 119.022858,191.972336 
M133.194458,169.018677 
	C129.532959,169.699692 130.642960,172.434631 131.412537,174.260086 
	C132.911026,177.814545 135.470123,176.116180 138.554199,175.264404 
	C143.503311,175.502747 148.453461,175.882095 153.400589,175.846298 
	C154.266281,175.840027 155.119354,174.089081 156.762222,173.055847 
	C157.798492,172.576294 158.834747,172.096725 159.871017,171.617157 
	C159.747253,171.024460 159.623489,170.431763 159.499725,169.839050 
	C151.996613,169.554596 144.493515,169.270142 136.236115,169.000931 
	C135.484421,169.050217 134.732742,169.099487 133.194458,169.018677 
M193.708023,162.856522 
	C191.195145,160.058624 189.066849,162.049637 186.037247,163.255539 
	C184.127625,163.339478 182.217987,163.423416 179.731018,163.532730 
	C180.272034,170.253220 180.760300,176.318375 181.258789,182.510681 
	C188.278381,182.510681 194.774216,182.510681 201.406631,182.510681 
	C200.539627,176.985092 199.475876,171.934402 199.037537,166.830002 
	C198.723297,163.170670 196.937454,162.790619 193.708023,162.856522 
M136.500031,138.448715 
	C136.500031,138.448715 136.536194,138.519363 136.500031,138.448715 
z"/>
<path fill="#929999" opacity="1.000000" stroke="none" 
	d="
M262.990021,76.045380 
	C268.439392,77.294304 264.714996,81.376266 266.712891,84.881607 
	C260.151947,84.881607 254.813858,84.881607 249.475784,84.881607 
	C249.370117,85.571434 249.264450,86.261253 249.158783,86.951080 
	C250.725296,87.251060 252.292740,87.804153 253.858154,87.798500 
	C257.146637,87.786636 260.432922,87.411491 263.722931,87.357697 
	C264.349518,87.347443 265.361115,88.026077 265.517059,88.578339 
	C265.670197,89.120552 265.143188,90.228355 264.600891,90.537331 
	C256.603607,95.094139 245.033203,95.433746 239.640793,88.960388 
	C238.146210,87.166183 237.447952,84.717186 236.327942,82.598434 
	C235.844147,81.683250 235.217117,80.843788 234.655151,79.969925 
	C234.088837,80.980568 233.274475,81.935944 233.033188,83.018990 
	C232.833435,83.915527 233.344986,84.957878 233.481461,85.943916 
	C235.019684,97.057251 229.025650,104.056023 217.767975,103.840385 
	C212.975082,103.748573 208.197418,102.862968 202.407516,102.227814 
	C204.842255,97.628670 205.735397,94.357109 210.933975,95.723175 
	C214.247696,96.593933 218.462036,97.259140 221.347977,92.190666 
	C213.512115,93.354988 206.778610,92.833344 202.368164,86.223335 
	C201.838333,86.481606 201.345276,86.572472 201.301971,86.764664 
	C199.723190,93.772652 199.728928,93.771935 192.154861,93.761513 
	C187.550629,93.755173 182.945312,93.817451 178.342438,93.737549 
	C173.209763,93.648468 169.080322,91.028908 167.046463,86.720047 
	C165.429276,83.293976 164.957855,78.934143 168.756897,75.862595 
	C168.894455,77.221985 168.727829,78.350380 168.624008,79.053391 
	C171.949493,78.305046 174.853241,77.285858 177.814804,77.073647 
	C181.927811,76.778923 182.607224,75.043488 180.934143,71.675369 
	C182.163574,71.675369 183.393005,71.675369 185.172256,71.675369 
	C182.617340,68.645126 180.010437,65.982574 183.740540,63.106243 
	C185.419083,66.881950 194.063400,68.633591 196.081497,65.976761 
	C196.573578,65.328918 196.015320,63.883236 195.939987,62.804390 
	C198.551819,61.555565 198.642578,63.070000 198.533218,65.061852 
	C198.245514,70.301445 197.930679,75.545197 197.893860,80.789162 
	C197.884033,82.187180 198.836075,83.591949 199.346497,84.993622 
	C199.961578,83.725136 200.606720,82.470093 201.181885,81.183754 
	C201.613678,80.218063 201.955490,79.212151 202.961624,78.320816 
	C204.525055,78.623360 205.549042,79.178329 206.388641,78.974358 
	C209.935867,78.112587 213.373764,76.552383 216.954422,76.140144 
	C221.360886,75.632812 225.872910,75.907867 230.333115,76.045441 
	C233.693207,76.149086 235.375305,74.908638 234.922607,71.399216 
	C235.531754,72.518929 235.988876,73.769684 236.802307,74.713303 
	C237.365524,75.366669 238.420105,75.596466 239.585876,76.295288 
	C239.809998,77.553932 239.703369,78.532829 239.508911,80.318001 
	C247.778275,73.300591 255.552841,75.620560 263.712067,79.941826 
	C263.389679,78.202095 263.189850,77.123741 262.990021,76.045380 
M178.803543,80.391563 
	C177.539352,83.011688 177.844696,85.481468 180.682739,86.440903 
	C181.925522,86.861046 184.773117,85.889420 185.095169,84.940186 
	C185.666794,83.255287 185.446106,80.662300 184.418518,79.322090 
	C183.834045,78.559792 180.992905,79.527748 178.803543,80.391563 
M215.529587,79.118279 
	C215.416336,81.191132 215.044601,83.311195 215.407288,85.297142 
	C215.480103,85.695847 218.708817,86.192261 219.816696,85.529984 
	C220.835449,84.920967 221.594193,82.687187 221.340317,81.389748 
	C220.830780,78.785744 218.985367,77.452431 215.529587,79.118279 
z"/>
<path fill="#696969" opacity="1.000000" stroke="none" 
	d="
M219.363617,339.699615 
	C219.343719,299.697418 219.735855,259.778870 219.942474,219.859344 
	C219.985352,211.575714 219.339874,203.288513 219.470428,194.520142 
	C223.297928,194.013687 226.666641,193.990051 230.035355,193.966415 
	C230.120178,198.944580 230.276001,203.922729 230.278549,208.900925 
	C230.298340,247.614243 230.289551,286.327545 230.287201,325.040863 
	C230.286728,333.084839 227.443680,337.040619 219.363617,339.699615 
z"/>
<path fill="#696969" opacity="1.000000" stroke="none" 
	d="
M219.022751,191.824097 
	C219.015778,176.869949 218.829605,161.912537 219.102020,146.963486 
	C219.193558,141.939163 218.081299,137.836105 214.125061,134.230682 
	C222.522659,132.756973 230.215973,138.994690 230.256165,147.358871 
	C230.326187,161.937332 230.235077,176.516571 229.657776,191.541229 
	C225.743607,191.932693 222.383179,191.878403 219.022751,191.824097 
z"/>
<path fill="#939797" opacity="1.000000" stroke="none" 
	d="
M108.047119,86.752068 
	C113.670273,87.181030 109.462570,90.994331 111.124252,93.879410 
	C103.379723,92.653572 96.041801,96.321526 89.703773,91.121925 
	C85.150589,96.453880 79.009697,92.573730 72.564072,94.035507 
	C74.228065,86.031998 74.545700,78.890526 72.667892,71.373871 
	C74.921295,71.639969 76.041245,71.816521 77.168060,71.896912 
	C80.453178,72.131294 84.894142,71.134468 86.698555,72.878853 
	C88.449463,74.571510 87.303345,79.094826 87.834297,82.308136 
	C88.013206,83.390846 89.432762,84.268570 90.285301,85.239975 
	C91.288322,84.235962 92.948959,83.358223 93.170563,82.204170 
	C93.824501,78.798561 93.908928,75.283592 94.586243,71.462738 
	C95.479347,72.627579 96.656555,74.258469 96.409775,75.633858 
	C95.453079,80.965927 94.043213,86.216698 92.784592,91.572128 
	C98.017235,91.572128 103.192345,91.572128 108.476822,91.572128 
	C108.308014,89.678543 108.177567,88.215302 108.047119,86.752068 
z"/>
<path fill="#8E8E8E" opacity="1.000000" stroke="none" 
	d="
M107.796913,86.587524 
	C108.177567,88.215302 108.308014,89.678543 108.476822,91.572128 
	C103.192345,91.572128 98.017235,91.572128 92.784592,91.572128 
	C94.043213,86.216698 95.453079,80.965927 96.409775,75.633858 
	C96.656555,74.258469 95.479347,72.627579 94.624741,71.022202 
	C93.830513,70.877434 93.367836,70.824532 92.491760,70.372009 
	C92.031654,68.993347 91.984940,68.014290 92.410568,67.020851 
	C102.232613,66.991180 111.582306,66.975899 120.964096,67.384460 
	C120.978371,69.737030 120.960564,71.665741 120.942764,73.594452 
	C118.676544,73.327545 116.410324,73.060631 113.956291,72.252556 
	C113.180611,71.462540 112.592751,71.213684 112.004883,70.964828 
	C111.513367,70.972679 110.980995,70.860054 110.537773,71.010330 
	C109.038475,71.518639 107.570755,72.120110 106.090965,72.685974 
	C107.512871,73.618492 108.934776,74.551003 110.686371,76.046799 
	C109.874329,77.766586 108.899246,79.195564 107.553558,80.018608 
	C105.280380,81.408920 102.026482,82.236519 106.401634,85.033257 
	C106.783318,85.496506 107.165009,85.959747 107.796913,86.587524 
z"/>
<path fill="#939797" opacity="1.000000" stroke="none" 
	d="
M145.962067,71.558426 
	C151.057281,71.532921 156.159241,71.368340 161.241211,71.615402 
	C162.113571,71.657806 163.740387,73.611633 163.589828,74.414597 
	C162.662979,79.358177 162.961334,84.006203 164.587952,88.843506 
	C165.684540,92.104622 163.856064,94.118637 160.007614,93.801102 
	C157.209610,93.570244 154.376633,93.792679 151.560303,93.747192 
	C147.702164,93.684875 144.834732,88.907753 147.619308,86.420906 
	C152.699158,81.884201 149.285263,79.116386 146.302216,75.402573 
	C145.946930,73.841904 145.954498,72.700165 145.962067,71.558426 
z"/>
<path fill="#757878" opacity="1.000000" stroke="none" 
	d="
M185.918274,375.918518 
	C190.254028,376.275146 193.415146,377.523438 194.028809,383.378235 
	C191.586670,382.524780 189.829117,381.760345 187.993866,381.319092 
	C186.646912,380.995239 185.192810,381.004120 183.799271,381.084991 
	C183.530411,381.100586 182.997284,382.524811 183.136047,382.640686 
	C184.089645,383.437042 185.104645,384.321289 186.256180,384.692596 
	C193.170654,386.922302 195.289612,389.202911 194.099045,393.412140 
	C192.933548,397.532623 187.118759,399.903839 181.827179,397.710052 
	C179.519531,396.753387 177.887436,394.167175 175.864975,392.241425 
	C181.070358,387.651367 184.430328,397.879944 189.344513,391.348267 
	C187.427475,390.484863 185.837296,389.558563 184.123703,389.040405 
	C180.482010,387.939270 176.664658,386.821899 177.185211,382.042877 
	C177.695267,377.360107 181.273315,375.995422 185.918274,375.918518 
z"/>
<path fill="#949595" opacity="1.000000" stroke="none" 
	d="
M145.667053,76.976830 
	C145.735428,77.732048 145.803787,78.487259 145.406586,79.618820 
	C142.605759,80.932571 140.270493,81.869987 137.935242,82.807404 
	C137.935242,82.807404 138.012741,82.895676 137.734436,83.072952 
	C137.570450,84.209015 137.684738,85.167809 137.799026,86.126595 
	C137.976013,86.145958 138.152985,86.165314 138.679108,86.474075 
	C139.564682,87.238037 140.101120,87.712601 140.637573,88.187164 
	C141.148483,92.219826 139.207306,93.485428 135.394363,93.237549 
	C131.584808,92.989891 127.747910,93.162590 123.460732,92.692123 
	C123.288437,90.561966 123.449593,88.854530 123.905701,87.229904 
	C124.336609,85.694992 125.077515,84.247108 125.682076,82.760948 
	C125.595711,81.968094 125.509338,81.175232 125.244743,79.833229 
	C125.031403,78.883591 124.996292,78.483101 125.093414,77.787056 
	C125.495705,76.692635 125.765755,75.893768 126.489563,75.080910 
	C129.740906,75.027931 132.538513,74.988953 135.501556,74.945007 
	C135.667023,74.940048 135.993134,74.997215 136.198349,75.323853 
	C139.491394,76.092613 142.579224,76.534721 145.667053,76.976830 
z"/>
<path fill="#8E8E8E" opacity="1.000000" stroke="none" 
	d="
M129.072449,194.083755 
	C129.037292,208.432861 129.002136,222.781982 128.958710,237.605652 
	C126.467796,237.343323 122.524826,239.609604 122.347412,234.024078 
	C122.736076,220.238358 122.834801,207.156921 123.370560,194.063110 
	C125.562553,194.061737 127.317505,194.072739 129.072449,194.083755 
z"/>
<path fill="#757878" opacity="1.000000" stroke="none" 
	d="
M214.519287,398.152985 
	C212.150421,396.924744 208.617310,395.868896 208.391083,394.327637 
	C207.358322,387.291504 214.436813,389.238861 217.902954,387.072388 
	C217.805374,386.589203 217.707794,386.105988 217.610214,385.622803 
	C214.897552,386.018799 212.184875,386.414825 208.861542,386.899963 
	C210.182159,381.777618 213.544373,381.137299 217.081772,381.396851 
	C220.745789,381.665619 223.370346,383.457550 223.358276,387.657227 
	C223.348831,390.945587 223.356384,394.234009 223.356384,397.637848 
	C220.262650,397.807129 217.570312,397.954468 214.519287,398.152985 
z"/>
<path fill="#A9A9A9" opacity="1.000000" stroke="none" 
	d="
M129.534058,194.058838 
	C127.317505,194.072739 125.562553,194.061737 122.979630,194.037643 
	C121.103363,194.020508 120.055046,194.016434 119.006737,194.012375 
	C118.985168,193.558441 118.963593,193.104492 118.982437,192.311447 
	C120.059845,191.962952 121.096832,191.953568 122.964394,191.943573 
	C125.561745,191.926025 127.328522,191.909073 129.095306,191.892105 
	C158.758743,191.903900 188.422195,191.915695 218.554199,191.875793 
	C222.383179,191.878403 225.743607,191.932693 229.563568,192.003601 
	C230.051758,192.453079 230.080399,192.885956 230.072205,193.642624 
	C226.666641,193.990051 223.297928,194.013687 219.475464,194.096115 
	C189.346344,194.114578 159.671005,194.074249 129.534058,194.058838 
z"/>
<path fill="#757878" opacity="1.000000" stroke="none" 
	d="
M137.253891,383.902832 
	C138.161423,386.165405 138.807053,388.132324 139.672302,390.768341 
	C135.634537,390.986176 132.411438,391.160095 129.188339,391.334015 
	C129.042252,391.839630 128.896179,392.345276 128.750092,392.850891 
	C130.168106,393.225861 131.597427,393.938629 133.001297,393.891602 
	C134.820679,393.830597 136.619781,393.164185 138.945831,392.642059 
	C136.598740,397.820618 132.684311,399.470062 128.166763,397.862000 
	C124.214035,396.454987 122.034157,391.595947 123.344368,387.112732 
	C124.522820,383.080414 128.467072,380.553162 132.591034,381.482361 
	C134.139008,381.831207 135.529633,382.878357 137.253891,383.902832 
z"/>
<path fill="#757878" opacity="1.000000" stroke="none" 
	d="
M153.942749,384.046112 
	C159.987946,379.651215 165.140549,380.552643 167.813202,386.971680 
	C164.589432,386.346710 161.913330,385.827911 159.237213,385.309082 
	C159.111359,385.798126 158.985504,386.287170 158.859650,386.776184 
	C160.586578,387.309845 162.539490,387.505157 163.980164,388.467407 
	C165.584595,389.539093 167.730042,391.271576 167.785736,392.784637 
	C167.843399,394.350983 166.017456,396.654572 164.417877,397.485748 
	C160.054108,399.753235 155.454956,398.033569 152.692139,392.922882 
	C156.310715,393.397522 159.292587,393.788635 162.274445,394.179749 
	C159.432907,390.391418 151.179306,392.523956 153.942749,384.046112 
z"/>
<path fill="#9FAEAE" opacity="1.000000" stroke="none" 
	d="
M292.946930,33.994362 
	C295.138214,47.068443 288.128448,55.882565 279.170837,63.810802 
	C278.192841,64.676414 277.500000,66.034393 276.391144,66.533081 
	C275.325439,67.012360 273.451752,67.219666 272.687775,66.606377 
	C265.913605,61.168213 260.542023,54.505501 256.799286,46.662109 
	C255.996063,44.978848 256.247498,42.792313 256.321533,40.559807 
	C257.175659,40.528545 257.721405,40.775089 258.496826,41.274124 
	C259.221558,43.090805 259.724945,44.652412 260.210236,46.219646 
	C262.118134,52.381603 265.418518,57.543015 270.660583,61.463604 
	C273.319397,63.452148 275.646637,63.547604 278.275513,61.488949 
	C287.234589,54.473152 290.810364,45.215267 290.197327,34.122307 
	C291.283417,34.130909 292.115173,34.062634 292.946930,33.994362 
z"/>
<path fill="#929999" opacity="1.000000" stroke="none" 
	d="
M292.996460,33.602226 
	C292.115173,34.062634 291.283417,34.130909 289.947815,34.014359 
	C288.971558,33.564346 288.499176,33.299156 287.641510,32.995903 
	C284.214661,31.800680 280.936890,31.034348 278.196686,29.378473 
	C275.351013,27.658846 273.311249,27.993610 270.553741,29.533533 
	C267.616394,31.173914 264.179291,31.919384 260.607819,33.133926 
	C259.592560,35.815403 258.929871,38.418518 258.267151,41.021633 
	C257.721405,40.775089 257.175659,40.528545 256.367249,40.137451 
	C256.067657,39.167778 256.011841,38.343002 255.996826,37.517487 
	C255.857498,29.864756 255.913193,30.167215 263.583160,28.806555 
	C266.605316,28.270426 269.251495,25.853674 272.221741,24.680342 
	C273.602203,24.135027 275.916779,23.833733 276.826538,24.594851 
	C280.253723,27.462076 283.801819,29.537409 288.403961,28.818377 
	C291.976868,28.260153 293.311646,29.830208 292.996460,33.602226 
z"/>
<path fill="#757878" opacity="1.000000" stroke="none" 
	d="
M203.582245,380.184875 
	C205.646637,382.045044 207.895126,382.961578 204.822525,386.117859 
	C203.502808,387.473572 204.459000,391.250641 204.759201,393.884552 
	C204.895172,395.077667 205.952423,396.165802 206.692551,397.480682 
	C199.847473,398.874146 198.245453,397.520569 197.959259,391.444519 
	C197.859665,389.330017 196.338730,387.203064 196.518692,385.175140 
	C196.736740,382.718445 198.069489,380.360687 198.919891,377.960144 
	C200.433746,378.586914 201.947571,379.213715 203.582245,380.184875 
z"/>
<path fill="#717171" opacity="1.000000" stroke="none" 
	d="
M118.934998,194.475464 
	C120.055046,194.016434 121.103363,194.020508 122.542595,194.050034 
	C122.834801,207.156921 122.736076,220.238358 122.367447,233.628967 
	C118.946655,229.920822 118.590858,225.304626 118.739212,220.387177 
	C118.994942,211.910782 118.843712,203.422089 118.934998,194.475464 
z"/>
<path fill="#717171" opacity="1.000000" stroke="none" 
	d="
M108.084930,376.213074 
	C111.138023,375.701538 112.058479,376.830719 111.976364,379.429169 
	C111.831108,384.025146 111.935654,388.629028 111.935654,392.239227 
	C114.556175,395.921295 120.595222,390.659058 121.045059,397.659729 
	C116.361092,397.659729 111.971664,397.659729 106.442596,397.659729 
	C106.844788,390.511108 107.244354,383.409058 108.084930,376.213074 
z"/>
<path fill="#7F8282" opacity="1.000000" stroke="none" 
	d="
M234.470688,71.315948 
	C235.375305,74.908638 233.693207,76.149086 230.333115,76.045441 
	C225.872910,75.907867 221.360886,75.632812 216.954422,76.140144 
	C213.373764,76.552383 209.935867,78.112587 206.388641,78.974358 
	C205.549042,79.178329 204.525055,78.623360 203.339783,78.229980 
	C203.926102,76.819023 204.758530,75.595596 206.220032,74.203369 
	C208.258591,73.182724 209.668060,72.330872 211.077545,71.479027 
	C213.080597,71.401741 215.083649,71.324455 217.618561,71.605957 
	C219.461975,71.843513 220.773529,71.722282 222.085083,71.601059 
	C226.062973,71.478264 230.040878,71.355469 234.470688,71.315948 
z"/>
<path fill="#717171" opacity="1.000000" stroke="none" 
	d="
M144.270294,377.962738 
	C149.533493,378.754700 150.911392,382.335419 149.002090,386.144409 
	C147.976334,388.190765 149.150452,391.431122 149.608124,394.085083 
	C149.792862,395.156372 150.715530,396.100342 151.408096,397.282715 
	C144.646759,398.778992 143.195236,397.595337 142.861954,391.701843 
	C142.731659,389.397675 141.198730,387.097321 141.361923,384.872803 
	C141.532806,382.543793 142.973480,380.307922 144.270294,377.962738 
z"/>
<path fill="#717171" opacity="1.000000" stroke="none" 
	d="
M246.826599,381.141663 
	C247.705917,382.490875 248.913315,384.443756 248.678879,384.635712 
	C244.108124,388.378265 245.172638,391.858093 248.796478,395.457092 
	C249.137131,395.795410 248.904007,396.711426 248.936081,397.336121 
	C242.700668,398.896881 241.200317,397.633575 240.924408,391.341858 
	C240.831940,389.232849 239.272949,387.098999 239.479477,385.089020 
	C239.728378,382.666321 240.532028,379.644745 242.222275,378.207184 
	C243.973480,376.717804 246.232925,378.090851 246.826599,381.141663 
z"/>
<path fill="#757878" opacity="1.000000" stroke="none" 
	d="
M120.932007,66.960609 
	C111.582306,66.975899 102.232613,66.991180 92.267441,66.693710 
	C91.389877,65.224365 91.127792,64.067787 90.865700,62.911201 
	C100.412415,62.767181 109.959496,62.544975 119.505310,62.590176 
	C120.554611,62.595142 121.596664,64.133759 122.364777,65.403580 
	C121.702324,66.217598 121.317169,66.589104 120.932007,66.960609 
z"/>
<path fill="#7F8282" opacity="1.000000" stroke="none" 
	d="
M232.790833,387.041138 
	C232.130859,390.743988 231.790573,394.156891 231.427826,397.795135 
	C229.817642,397.795135 228.387177,397.795135 226.599548,397.795135 
	C226.599548,392.444366 226.599548,387.237427 226.599548,381.899048 
	C229.849136,381.899048 232.915833,381.899048 236.471817,381.899048 
	C238.855667,385.272583 235.838928,385.933289 232.790833,387.041138 
z"/>
<path fill="#8E8E8E" opacity="1.000000" stroke="none" 
	d="
M160.976990,62.411907 
	C164.318359,64.500183 164.185608,66.932732 161.037247,67.817909 
	C157.804688,68.726761 154.166550,68.468971 150.740997,68.226273 
	C149.857986,68.163712 148.378754,66.155785 148.490311,65.194313 
	C148.613327,64.134277 150.167267,62.553528 151.247040,62.421749 
	C154.324509,62.046165 157.477768,62.291763 160.976990,62.411907 
z"/>
<path fill="#7F8282" opacity="1.000000" stroke="none" 
	d="
M74.832954,62.521103 
	C78.365952,62.372555 81.527206,62.041080 84.611938,62.388680 
	C85.729408,62.514606 86.663818,64.265083 87.681755,65.274284 
	C85.337791,66.664505 83.067085,69.009987 80.630829,69.196846 
	C77.753723,69.417511 73.733398,69.218842 73.365135,64.605621 
	C73.314537,63.971722 74.056122,63.274582 74.832954,62.521103 
z"/>
<path fill="#8E8E8E" opacity="1.000000" stroke="none" 
	d="
M127.692253,310.146606 
	C128.287827,315.223846 128.727997,320.457550 128.760208,325.693726 
	C128.764801,326.440613 126.741074,327.847412 125.750420,327.768280 
	C124.787842,327.691345 123.367279,326.207642 123.163361,325.146545 
	C122.607910,322.256134 122.589149,319.262573 122.044342,315.988586 
	C123.622757,313.879456 125.514557,312.091644 127.692253,310.146606 
z"/>
<path fill="#7F8282" opacity="1.000000" stroke="none" 
	d="
M262.992950,76.023865 
	C263.189850,77.123741 263.389679,78.202095 263.712067,79.941826 
	C255.552841,75.620560 247.778275,73.300591 239.508911,80.318001 
	C239.703369,78.532829 239.809998,77.553932 239.925568,76.237137 
	C240.048752,75.597977 240.233902,75.349556 241.061737,75.024551 
	C243.776062,73.725487 245.918625,72.555855 248.061172,71.386223 
	C250.069565,71.339912 252.077942,71.293602 254.627579,71.625092 
	C257.092865,72.676392 259.016876,73.349892 260.940918,74.023384 
	C260.940918,74.023384 260.998474,74.003761 261.039703,74.339050 
	C261.705688,75.119720 262.330444,75.565102 262.955200,76.010483 
	C262.955200,76.010483 262.995880,76.002350 262.992950,76.023865 
z"/>
<path fill="#7F8282" opacity="1.000000" stroke="none" 
	d="
M180.536652,71.520317 
	C182.607224,75.043488 181.927811,76.778923 177.814804,77.073647 
	C174.853241,77.285858 171.949493,78.305046 168.624008,79.053391 
	C168.727829,78.350380 168.894455,77.221985 169.090576,75.782341 
	C171.754822,71.315956 175.817841,70.993996 180.536652,71.520317 
z"/>
<path fill="#8E8E8E" opacity="1.000000" stroke="none" 
	d="
M145.767761,76.655396 
	C142.579224,76.534721 139.491394,76.092613 136.465851,75.199051 
	C137.092026,73.992218 137.655914,73.236832 138.219803,72.481453 
	C140.543045,72.070488 142.866272,71.659531 145.575790,71.403503 
	C145.954498,72.700165 145.946930,73.841904 145.921906,75.322449 
	C145.892456,75.885506 145.880463,76.109741 145.767761,76.655396 
z"/>
<path fill="#7F8282" opacity="1.000000" stroke="none" 
	d="
M195.485214,62.771347 
	C196.015320,63.883236 196.573578,65.328918 196.081497,65.976761 
	C194.063400,68.633591 185.419083,66.881950 184.025360,63.255997 
	C187.698700,62.805611 191.364578,62.771961 195.485214,62.771347 
z"/>
<path fill="#A1BFBF" opacity="1.000000" stroke="none" 
	d="
M120.964096,67.384460 
	C121.317169,66.589104 121.702324,66.217598 122.340485,65.755737 
	C123.496040,67.437378 124.398605,69.209389 125.671997,71.270035 
	C126.042824,71.558685 126.000259,71.984001 125.642540,71.996475 
	C124.593605,72.984779 123.902390,73.960602 123.164001,75.285751 
	C123.731606,76.450920 124.346397,77.266762 124.961182,78.082611 
	C124.996292,78.483101 125.031403,78.883591 125.074646,79.584030 
	C119.744072,80.845161 121.850327,76.595596 121.057053,73.944939 
	C120.960564,71.665741 120.978371,69.737030 120.964096,67.384460 
z"/>
<path fill="#939797" opacity="1.000000" stroke="none" 
	d="
M106.543114,84.645355 
	C102.026482,82.236519 105.280380,81.408920 107.553558,80.018608 
	C108.899246,79.195564 109.874329,77.766586 111.037712,76.192337 
	C114.114616,78.216255 113.477966,79.999451 110.187431,81.585258 
	C108.891533,82.209793 107.844795,83.351341 106.543114,84.645355 
z"/>
<path fill="#A1BFBF" opacity="1.000000" stroke="none" 
	d="
M125.377060,82.927567 
	C125.077515,84.247108 124.336609,85.694992 123.905701,87.229904 
	C123.449593,88.854530 123.288437,90.561966 122.993286,92.654099 
	C120.532288,91.867470 120.110588,87.055191 122.328438,85.139351 
	C123.189407,84.395622 124.154427,83.772339 125.377060,82.927567 
z"/>
<path fill="#8E8E8E" opacity="1.000000" stroke="none" 
	d="
M126.000259,71.984001 
	C126.000259,71.984001 126.042824,71.558685 126.074905,71.347961 
	C128.740997,71.127762 131.375000,71.118294 134.489471,71.333481 
	C134.969925,71.558144 135.038116,71.979607 135.027985,72.224030 
	C135.017838,72.468460 135.013168,72.957489 134.573944,72.961945 
	C131.423233,72.638939 128.711746,72.311470 126.000259,71.984001 
z"/>
<path fill="#A1BFBF" opacity="1.000000" stroke="none" 
	d="
M90.523758,63.002533 
	C91.127792,64.067787 91.389877,65.224365 91.795105,66.708099 
	C91.984940,68.014290 92.031654,68.993347 92.146439,70.329529 
	C88.884933,68.865707 88.658363,66.214035 90.523758,63.002533 
z"/>
<path fill="#929999" opacity="1.000000" stroke="none" 
	d="
M247.697479,71.282570 
	C245.918625,72.555855 243.776062,73.725487 241.268463,74.913200 
	C243.046890,73.680489 245.190338,72.429703 247.697479,71.282570 
z"/>
<path fill="#939797" opacity="1.000000" stroke="none" 
	d="
M138.311371,82.761383 
	C140.270493,81.869987 142.605759,80.932571 145.326340,79.992355 
	C143.370270,80.898155 141.028885,81.806763 138.311371,82.761383 
z"/>
<path fill="#929999" opacity="1.000000" stroke="none" 
	d="
M260.800354,73.713516 
	C259.016876,73.349892 257.092865,72.676392 255.053040,71.696609 
	C256.844757,72.061424 258.752258,72.732529 260.800354,73.713516 
z"/>
<path fill="#929999" opacity="1.000000" stroke="none" 
	d="
M210.750336,71.419235 
	C209.668060,72.330872 208.258591,73.182724 206.512650,74.054390 
	C207.591827,73.169289 209.007477,72.264366 210.750336,71.419235 
z"/>
<path fill="#929999" opacity="1.000000" stroke="none" 
	d="
M221.674728,71.510963 
	C220.773529,71.722282 219.461975,71.843513 218.044708,71.676254 
	C219.047455,71.398804 220.155914,71.409836 221.674728,71.510963 
z"/>
<path fill="#A1BFBF" opacity="1.000000" stroke="none" 
	d="
M135.038116,71.979607 
	C135.038116,71.979607 134.969925,71.558144 134.929596,71.349045 
	C135.802032,71.427368 136.714813,71.714790 137.923706,72.241837 
	C137.655914,73.236832 137.092026,73.992218 136.260635,74.872406 
	C135.993134,74.997215 135.667023,74.940048 135.475037,74.746094 
	C135.283035,74.552132 135.264435,74.151741 135.437012,73.949661 
	C135.419098,73.158264 135.228607,72.568932 135.038116,71.979607 
z"/>
<path fill="#A1BFBF" opacity="1.000000" stroke="none" 
	d="
M137.841202,85.737396 
	C137.684738,85.167809 137.570450,84.209015 137.735443,83.131668 
	C137.970947,83.791481 137.927170,84.569839 137.841202,85.737396 
z"/>
<path fill="#929999" opacity="1.000000" stroke="none" 
	d="
M262.912476,75.700150 
	C262.330444,75.565102 261.705688,75.119720 261.030609,74.368057 
	C261.610107,74.504471 262.239929,74.947144 262.912476,75.700150 
z"/>
<path fill="#A1BFBF" opacity="1.000000" stroke="none" 
	d="
M112.158630,71.175613 
	C112.592751,71.213684 113.180611,71.462540 113.664322,71.993439 
	C113.144241,71.979111 112.728310,71.682755 112.158630,71.175613 
z"/>
<path fill="#A1BFBF" opacity="1.000000" stroke="none" 
	d="
M140.700211,87.855293 
	C140.101120,87.712601 139.564682,87.238037 138.944946,86.499313 
	C139.495377,86.664566 140.129120,87.093994 140.700211,87.855293 
z"/>
<path fill="#C5F3F3" opacity="1.000000" stroke="none" 
	d="
M12.898035,790.903931 
	C11.632537,789.633972 10.157138,788.368591 10.068933,787.012939 
	C9.767444,782.379456 9.810020,777.707031 10.043509,773.065674 
	C10.111231,771.719482 11.509806,769.235107 11.869114,769.310791 
	C13.732882,769.703247 16.181578,770.287048 17.079981,771.675415 
	C18.939165,774.548523 19.947767,777.971924 21.799118,782.329285 
	C23.617752,778.281067 25.294374,775.177490 26.408281,771.883728 
	C27.420946,768.889282 29.608236,768.389648 31.820290,769.260010 
	C32.919411,769.692505 33.823368,771.924683 33.906502,773.394104 
	C34.168892,778.032288 34.161022,782.703979 33.894093,787.341736 
	C33.823082,788.575562 32.447639,789.734253 31.671093,790.927429 
	C30.776587,789.685425 29.366722,788.542542 29.104216,787.178894 
	C28.673492,784.941345 28.987581,782.560303 28.152454,779.923279 
	C27.007086,782.507812 25.966370,785.146423 24.670912,787.653381 
	C24.050684,788.853638 22.947807,789.804443 22.063515,790.868286 
	C20.985924,789.770203 19.597775,788.838867 18.899017,787.537415 
	C17.657812,785.225525 16.834473,782.689392 15.786732,780.125793 
	C14.937448,783.829895 14.130695,787.348450 12.898035,790.903931 
z"/>
<path fill="#C5F3F3" opacity="1.000000" stroke="none" 
	d="
M220.080414,777.504944 
	C220.771561,780.461365 220.982864,783.439758 222.515930,785.366333 
	C223.320267,786.377136 226.440750,785.544800 229.058044,785.544800 
	C227.265640,783.081543 226.256531,781.694824 225.247437,780.308044 
	C227.560104,779.909668 229.915237,779.105774 232.161560,779.341064 
	C232.910248,779.419434 233.913956,782.174255 233.872147,783.679810 
	C233.768661,787.406738 231.541245,790.035950 227.932739,790.738892 
	C223.597076,791.583496 219.225189,791.505737 216.104568,787.497070 
	C213.155594,783.708740 213.291428,776.776917 216.358551,772.481140 
	C218.840866,769.004395 223.541443,767.739807 228.520432,769.815247 
	C230.660904,770.707458 232.333740,772.721558 234.219025,774.226013 
	C233.904892,774.863037 233.590744,775.500122 233.276596,776.137207 
	C231.354553,775.744202 229.275513,775.689392 227.544189,774.885620 
	C224.253326,773.357971 221.795944,773.592896 220.080414,777.504944 
z"/>
<path fill="#C5F3F3" opacity="1.000000" stroke="none" 
	d="
M284.985870,779.014832 
	C287.630951,775.542603 290.450928,772.538208 295.657806,775.611389 
	C295.825775,773.922729 295.606415,772.480530 296.169556,771.477722 
	C296.750366,770.443420 298.117767,769.188110 299.094971,769.225769 
	C300.069183,769.263306 301.761627,770.750793 301.801575,771.661316 
	C302.049103,777.297852 301.999512,782.953430 301.823883,788.595703 
	C301.799103,789.391907 300.674377,790.635803 299.845001,790.851807 
	C289.149689,793.637390 284.976440,790.494629 285.015930,779.431763 
	C285.000061,779.000000 284.985870,779.014832 284.985870,779.014832 
M295.829773,784.986084 
	C295.896606,784.325317 296.246307,783.501221 295.976898,783.034546 
	C295.191589,781.674255 294.158875,780.456787 293.223145,779.183350 
	C292.511017,780.973999 291.079041,782.838562 291.253662,784.538086 
	C291.522705,787.156738 293.418701,787.655884 295.829773,784.986084 
z"/>
<path fill="#C5F3F3" opacity="1.000000" stroke="none" 
	d="
M69.811066,790.680054 
	C66.960922,790.892334 64.367500,791.430603 62.064751,790.838440 
	C59.614342,790.208374 56.704189,789.050659 55.304737,787.155884 
	C52.788166,783.748413 53.528347,779.458679 56.345280,776.610718 
	C58.032707,774.904846 61.297256,774.758911 63.852921,773.911865 
	C64.025612,774.351929 64.198303,774.792053 64.370995,775.232117 
	C64.562431,774.998840 64.771706,774.777893 64.942467,774.530334 
	C66.196564,772.712708 67.442924,770.889709 68.691711,769.068359 
	C69.453667,771.118347 70.817169,773.156189 70.858665,775.220642 
	C70.960960,780.310181 70.456314,785.411804 69.811066,790.680054 
M64.480530,785.984131 
	C64.556282,783.926697 64.732071,781.861267 64.567635,779.823181 
	C64.549278,779.595764 61.857758,779.114624 61.671143,779.451660 
	C60.873535,780.892273 59.965588,782.714355 60.259445,784.161499 
	C60.456394,785.131409 62.603909,785.705261 64.480530,785.984131 
z"/>
<path fill="#C5F3F3" opacity="1.000000" stroke="none" 
	d="
M109.746468,790.975464 
	C107.873749,790.784180 106.231148,790.037720 104.962387,790.447815 
	C98.978310,792.382080 98.651733,789.041016 98.906143,784.577759 
	C99.123566,780.763245 98.740440,776.908569 99.064316,773.109253 
	C99.183792,771.707764 100.564835,770.413879 101.370476,769.070923 
	C102.245094,770.332153 103.198112,771.548706 103.954895,772.877014 
	C104.248108,773.391724 104.097328,774.159424 104.124580,774.504761 
	C106.756729,774.808105 109.386490,774.629028 111.564583,775.535339 
	C112.966385,776.118652 114.124901,778.158386 114.661469,779.786316 
	C116.297653,784.750488 114.598587,788.601929 109.746468,790.975464 
M105.077492,779.654358 
	C104.719414,780.874268 103.856613,782.225159 104.130745,783.280945 
	C104.475029,784.606995 105.750488,785.691345 106.624069,786.880066 
	C107.709648,785.675171 109.541077,784.570129 109.718491,783.243713 
	C110.042511,780.821411 109.119835,778.543274 105.077492,779.654358 
z"/>
<path fill="#C5F3F3" opacity="1.000000" stroke="none" 
	d="
M203.511719,775.255127 
	C207.420166,777.252808 205.390900,773.965210 205.964325,773.046997 
	C206.785934,771.731506 207.583633,770.401123 208.391541,769.077026 
	C209.262268,770.505737 210.778809,771.888672 210.883774,773.371582 
	C211.210526,777.988037 211.119507,782.647461 210.922745,787.278748 
	C210.870911,788.498718 209.943573,790.646484 209.260025,790.711731 
	C205.847931,791.037781 202.298004,791.272095 198.960098,790.654663 
	C195.422379,790.000244 193.689850,784.214172 195.204376,779.060425 
	C196.395187,775.008240 199.142670,773.593445 203.511719,775.255127 
M200.017700,782.587891 
	C200.997421,784.018311 201.977142,785.448792 202.956848,786.879211 
	C203.912720,785.886108 205.602478,784.927612 205.651352,783.891724 
	C205.723541,782.362183 204.628555,780.777527 204.030640,779.216370 
	C202.708359,780.073547 201.386078,780.930725 200.017700,782.587891 
z"/>
<path fill="#C5F3F3" opacity="1.000000" stroke="none" 
	d="
M141.079010,787.643982 
	C141.075714,782.706360 141.064621,778.228882 141.088409,773.751465 
	C141.105103,770.608398 142.317322,768.725830 145.864944,768.973816 
	C148.340408,769.146851 150.875809,768.752563 153.309311,769.115540 
	C154.561737,769.302246 155.649948,770.590088 156.812347,771.380371 
	C155.607727,772.232727 154.498901,773.322510 153.167145,773.859802 
	C152.164993,774.264038 150.813293,773.734375 149.735474,774.038879 
	C148.796356,774.304321 148.022659,775.155090 147.175842,775.747192 
	C148.032059,776.489868 148.840256,777.302795 149.769592,777.938538 
	C150.111374,778.172363 150.784119,777.860657 151.228683,778.017151 
	C152.758209,778.555664 154.253616,779.191223 155.762024,779.789734 
	C154.232162,780.537964 152.664856,781.983337 151.179504,781.903442 
	C146.759735,781.666016 147.063004,784.352112 146.875717,787.330383 
	C146.797409,788.575745 145.446472,789.741089 144.674164,790.942810 
	C143.478134,789.996582 142.282120,789.050354 141.079010,787.643982 
z"/>
<path fill="#C5F3F3" opacity="1.000000" stroke="none" 
	d="
M260.056488,791.017883 
	C258.253418,789.509216 255.640808,787.926697 255.733887,786.523804 
	C255.846848,784.821899 258.017670,782.947632 259.722992,781.755981 
	C261.146667,780.761230 263.182770,780.642883 264.947662,780.136475 
	C264.855011,779.614502 264.762390,779.092529 264.669739,778.570557 
	C262.038757,779.018921 259.407776,779.467285 255.782242,780.085144 
	C258.141693,775.414246 260.944000,773.462646 265.012695,774.289734 
	C269.071259,775.114807 271.404785,777.604187 271.008057,782.113770 
	C270.818848,784.264038 271.196869,786.486511 270.822357,788.587952 
	C270.661102,789.492859 269.312439,790.732544 268.381165,790.849731 
	C265.770081,791.178040 263.095520,791.001160 260.056488,791.017883 
z"/>
<path fill="#C5F3F3" opacity="1.000000" stroke="none" 
	d="
M317.474640,781.363342 
	C319.204346,780.934021 320.554321,780.630615 321.904297,780.327148 
	C321.822205,779.773438 321.740112,779.219727 321.658020,778.666077 
	C319.072784,779.106445 316.487549,779.546814 313.088989,780.125671 
	C314.920471,775.381042 317.774658,773.735901 321.767517,774.231445 
	C325.718506,774.721680 328.098419,776.882996 328.001160,781.187927 
	C327.934143,784.152344 327.988281,787.119507 327.988281,790.958069 
	C323.738556,790.958069 319.850891,791.248108 316.055817,790.782898 
	C314.902557,790.641541 313.472809,788.553711 313.099426,787.115845 
	C312.290344,784.000122 313.925415,782.066772 317.474640,781.363342 
z"/>
<path fill="#C5F3F3" opacity="1.000000" stroke="none" 
	d="
M51.970726,787.632568 
	C51.121689,789.029968 50.209068,790.868103 49.445019,790.808289 
	C45.368423,790.489258 40.759388,790.669250 37.465748,788.742737 
	C35.044365,787.326355 37.289326,782.723328 40.685825,781.657898 
	C42.235878,781.171631 43.849037,780.886475 45.433582,780.510132 
	C45.454197,779.995667 45.474812,779.481201 45.495430,778.966736 
	C42.898476,779.257568 40.301525,779.548401 36.577976,779.965393 
	C39.251396,775.486084 41.986687,773.403503 46.087700,774.299011 
	C50.145252,775.185181 52.433266,777.721802 52.001694,782.201660 
	C51.842667,783.852478 51.975819,785.531372 51.970726,787.632568 
z"/>
<path fill="#C5F3F3" opacity="1.000000" stroke="none" 
	d="
M87.444733,789.653381 
	C78.804245,792.937561 72.207909,789.201416 73.227310,782.013184 
	C73.844543,777.660889 77.560287,774.086670 81.480133,774.074707 
	C85.760345,774.061646 88.717247,777.309570 89.651642,783.598206 
	C86.313210,783.844482 82.992699,784.089417 79.672195,784.334351 
	C79.605545,784.901917 79.538887,785.469421 79.472237,786.036987 
	C81.266121,786.094299 83.059685,786.166565 84.853966,786.205017 
	C86.976807,786.250488 90.428596,785.061890 87.444733,789.653381 
z"/>
<path fill="#C5F3F3" opacity="1.000000" stroke="none" 
	d="
M253.005280,782.023193 
	C253.003525,784.158447 252.934509,785.822266 253.014038,787.478943 
	C253.175446,790.841858 251.534531,791.473633 248.629623,790.641357 
	C247.695557,790.373840 246.576218,790.380798 245.624680,790.608765 
	C240.529083,791.829773 237.503632,789.820251 237.083405,784.615906 
	C236.883636,782.141724 236.784042,779.593079 237.181366,777.166931 
	C237.362564,776.060486 238.857330,775.169250 239.756317,774.180359 
	C240.807861,775.184753 242.470291,776.033569 242.774521,777.228271 
	C243.292053,779.260559 242.739120,781.544067 243.067947,783.654663 
	C243.232178,784.708862 244.351501,785.614258 245.038818,786.586914 
	C245.949387,785.734314 247.424484,785.009521 247.652451,784.002441 
	C248.119476,781.939148 247.639816,779.663574 248.093369,777.594543 
	C248.371078,776.327637 249.657913,775.281982 250.491577,774.136963 
	C251.327286,775.278992 252.463593,776.315796 252.910843,777.593811 
	C253.325272,778.778015 253.003052,780.219971 253.005280,782.023193 
z"/>
<path fill="#C5F3F3" opacity="1.000000" stroke="none" 
	d="
M120.638779,775.176086 
	C122.132111,778.181580 123.255630,781.064453 124.387123,783.967834 
	C127.985329,782.068481 124.139259,773.056519 132.837982,775.561401 
	C130.727432,781.647644 128.879120,787.638306 126.495796,793.408020 
	C125.862419,794.941284 123.719940,796.106567 122.012268,796.839233 
	C121.077103,797.240417 119.602684,796.384827 118.371414,796.096008 
	C118.817810,795.029114 119.402901,793.996521 119.677574,792.887085 
	C120.072456,791.291992 120.784378,789.499084 120.403404,788.040771 
	C119.324677,783.911621 117.759064,779.909668 116.218735,775.366516 
	C117.797165,775.244507 119.033058,775.148987 120.638779,775.176086 
z"/>
<path fill="#C5F3F3" opacity="1.000000" stroke="none" 
	d="
M158.336197,787.483643 
	C156.173111,781.512512 157.631241,777.164368 162.264206,774.925293 
	C166.194626,773.025818 169.506805,774.378845 172.052734,777.382751 
	C175.073715,780.947205 174.578766,786.002319 171.307419,789.169312 
	C168.026169,792.345886 162.417114,791.753601 158.336197,787.483643 
M166.285568,778.366516 
	C161.513809,778.500549 163.104431,782.062195 163.233124,784.519897 
	C163.275101,785.321533 164.906586,786.039856 165.811066,786.796326 
	C166.535446,784.850464 167.385437,782.937500 167.907486,780.938782 
	C168.063690,780.340698 167.303421,779.503296 166.285568,778.366516 
z"/>
<path fill="#C5F3F3" opacity="1.000000" stroke="none" 
	d="
M175.992859,782.973877 
	C175.996979,778.433899 177.666977,775.031006 181.935165,774.752625 
	C184.727036,774.570557 189.021790,775.368347 190.165497,777.240723 
	C191.809631,779.932373 192.196808,784.290588 191.294373,787.408997 
	C190.194382,791.210205 185.916138,791.506775 182.377747,790.920410 
	C178.352066,790.253235 176.004700,787.690613 175.992859,782.973877 
M186.415695,785.732422 
	C186.477158,783.978455 186.941086,782.096802 186.441238,780.520874 
	C186.164612,779.648682 184.274704,779.288269 183.111984,778.697144 
	C182.525986,780.620605 181.475037,782.573059 181.592361,784.452576 
	C181.636719,785.163208 184.379135,785.705383 186.415695,785.732422 
z"/>
<path fill="#C5F3F3" opacity="1.000000" stroke="none" 
	d="
M336.031189,786.873535 
	C335.096985,788.519836 334.164185,789.719177 333.231323,790.918518 
	C332.486938,789.698242 331.320618,788.550781 331.094666,787.241028 
	C330.733307,785.146484 330.966766,782.943787 331.001587,780.787659 
	C331.057495,777.324768 330.188385,772.807861 336.315125,776.033630 
	C336.702087,776.237305 337.488770,775.714905 338.077332,775.497559 
	C343.830292,773.373596 346.772400,775.363342 346.960144,781.577515 
	C347.030182,783.897217 347.176300,786.257629 346.820312,788.526123 
	C346.678192,789.431885 345.265533,790.770813 344.445801,790.760498 
	C343.618500,790.750000 342.318665,789.425049 342.098877,788.474182 
	C341.697205,786.736511 342.316803,784.733215 341.799255,783.060730 
	C341.343781,781.588745 339.916779,780.417297 338.918823,779.113159 
	C337.959961,780.389648 336.763428,781.559326 336.124847,782.979858 
	C335.690033,783.947144 336.035858,785.265320 336.031189,786.873535 
z"/>
<path fill="#C5F3F3" opacity="1.000000" stroke="none" 
	d="
M285.007507,778.992798 
	C280.391632,778.599365 278.674042,780.950134 278.995392,785.303955 
	C279.080658,786.459290 279.247803,787.733459 278.862885,788.760132 
	C278.538147,789.626221 277.350525,790.878296 276.753906,790.773071 
	C275.762115,790.598328 274.221069,789.524414 274.164612,788.739197 
	C273.891144,784.935608 273.886108,781.091736 274.150085,777.287415 
	C274.206818,776.470154 275.662872,775.352844 276.664520,775.084778 
	C278.488403,774.596924 280.602417,774.139099 282.309753,774.640747 
	C283.448761,774.975464 284.093201,776.993408 284.972443,778.636414 
	C284.985870,779.014832 285.000061,779.000000 285.007507,778.992798 
z"/>
<path fill="#C2F2F2" opacity="1.000000" stroke="none" 
	d="
M308.773132,775.265015 
	C309.420380,779.982056 309.761261,784.536621 309.797211,789.093506 
	C309.802002,789.699585 308.314697,790.669983 307.413727,790.813232 
	C306.756439,790.917725 305.296082,789.966064 305.274017,789.440002 
	C305.094574,785.159058 305.054169,780.860535 305.309448,776.587585 
	C305.342560,776.033813 307.303497,775.595154 308.773132,775.265015 
z"/>
<path fill="#E1DC4B" opacity="1.000000" stroke="none" 
	d="
M169.330307,210.882401 
	C169.299805,209.831863 169.269318,208.781326 169.469482,207.082794 
	C171.095642,205.408829 172.491150,204.382828 173.886658,203.356842 
	C174.385895,203.313446 174.885147,203.270065 175.817719,203.570404 
	C177.386841,204.862579 179.222382,206.810013 179.538651,206.588470 
	C180.992310,205.570267 182.021683,203.946289 183.203278,202.539673 
	C185.134628,202.539673 187.065964,202.539673 189.523041,202.539673 
	C189.523041,205.450897 189.523041,208.157318 188.981659,210.925934 
	C182.303040,211.000946 176.165817,211.013779 169.856781,210.977142 
	C169.684982,210.927689 169.330307,210.882401 169.330307,210.882401 
z"/>
<path fill="#E1DC4B" opacity="1.000000" stroke="none" 
	d="
M188.987839,212.924026 
	C189.254227,215.626083 189.520630,218.328156 189.275482,221.479950 
	C183.862259,221.710938 178.025467,223.963196 175.838684,216.657867 
	C172.742645,217.082794 169.225571,217.987183 170.478210,212.946091 
	C176.958755,212.967148 182.973297,212.945587 188.987839,212.924026 
z"/>
<path fill="#8E8E8E" opacity="1.000000" stroke="none" 
	d="
M211.659241,307.505157 
	C209.930328,309.775696 207.844437,311.013824 206.264709,308.503937 
	C204.546860,305.774628 203.714264,302.488190 202.495712,299.444641 
	C204.834869,298.655212 207.314926,296.932587 209.485413,297.260315 
	C214.892593,298.076660 215.278519,300.357086 211.659241,307.505157 
z"/>
<path fill="#D4D8D7" opacity="1.000000" stroke="none" 
	d="
M139.012970,214.301468 
	C136.738586,214.596359 134.464203,214.891235 131.501297,215.275391 
	C131.501297,214.100906 131.049744,212.135880 131.678268,210.618134 
	C132.030060,209.768677 134.210587,209.191620 135.501587,209.296753 
	C142.525192,209.868698 149.530792,210.669647 156.535599,211.454300 
	C157.425873,211.554031 158.275162,212.019592 159.143448,213.142960 
	C157.994156,213.328308 156.844849,213.513657 154.877808,213.712662 
	C149.044373,213.918045 144.028671,214.109756 139.012970,214.301468 
z"/>
<path fill="#8E8E8E" opacity="1.000000" stroke="none" 
	d="
M159.007904,311.991547 
	C157.703903,311.830719 156.399918,311.669891 155.096298,311.509094 
	C154.976212,313.716461 154.853699,315.968170 154.711060,318.590149 
	C150.980301,318.590149 147.431229,318.590149 143.678268,318.590149 
	C143.678268,316.591492 143.678268,314.673065 143.678268,312.592194 
	C147.759949,310.300293 147.702881,314.320129 149.497345,316.281189 
	C149.497345,314.141663 149.497345,312.002136 149.497345,309.307953 
	C152.799133,309.774384 156.414719,306.724457 158.983307,311.595825 
	C158.999954,312.000000 159.007904,311.991547 159.007904,311.991547 
z"/>
<path fill="#8E8E8E" opacity="1.000000" stroke="none" 
	d="
M196.015869,313.983734 
	C195.677750,314.871887 195.172363,315.733978 195.029373,316.652496 
	C194.252090,321.645844 191.800674,322.918396 186.509476,320.653473 
	C187.880020,320.115936 188.999985,319.676697 191.034088,318.878906 
	C189.711990,318.399445 189.159332,318.309845 188.738342,318.025391 
	C187.522705,317.203796 186.360092,316.303650 185.176666,315.434357 
	C186.410873,314.301056 187.553879,312.368286 188.899841,312.214783 
	C191.127563,311.960724 193.486008,312.852966 195.894135,313.632080 
	C195.998871,314.001923 196.015869,313.983734 196.015869,313.983734 
z"/>
<path fill="#8E8E8E" opacity="1.000000" stroke="none" 
	d="
M158.995728,312.004272 
	C161.315262,312.006622 163.639023,312.002319 165.962799,312.003265 
	C171.779388,312.005615 171.779388,312.006592 171.452164,319.369995 
	C169.881348,318.098511 168.310532,316.827026 166.095047,315.033722 
	C164.594543,315.553772 164.259354,321.354706 159.909241,318.438263 
	C159.638367,316.522552 159.370056,314.625000 159.054840,312.359497 
	C159.007904,311.991547 158.999954,312.000000 158.995728,312.004272 
z"/>
<path fill="#8E8E8E" opacity="1.000000" stroke="none" 
	d="
M181.677429,318.936584 
	C179.783646,318.878082 178.115311,319.181732 176.872345,318.590790 
	C175.708237,318.037262 174.393478,316.602631 174.264267,315.432190 
	C174.151688,314.412292 175.542969,313.173096 176.394394,312.132812 
	C176.646896,311.824310 177.347641,311.922150 177.798035,311.729004 
	C179.344971,311.065552 180.871994,310.355621 182.406616,309.663452 
	C182.287369,312.744598 185.539124,315.941711 181.677429,318.936584 
z"/>
<path fill="#B6B64C" opacity="1.000000" stroke="none" 
	d="
M170.012192,212.903458 
	C169.225571,217.987183 172.742645,217.082794 175.838684,216.657867 
	C178.025467,223.963196 183.862259,221.710938 189.183273,221.899811 
	C183.593231,222.149750 177.583618,222.561325 171.574692,222.551270 
	C170.777283,222.549927 169.487625,220.482208 169.293427,219.236252 
	C168.914459,216.804901 169.149155,214.277893 169.230026,211.336456 
	C169.330307,210.882401 169.684982,210.927689 169.853180,211.290009 
	C170.018326,212.069366 170.015259,212.486404 170.012192,212.903458 
z"/>
<path fill="#696969" opacity="1.000000" stroke="none" 
	d="
M138.964966,214.624466 
	C144.028671,214.109756 149.044373,213.918045 154.520935,213.800934 
	C154.700363,214.893768 154.444427,216.790054 154.133667,216.799103 
	C149.150787,216.943817 144.160614,216.858826 139.174622,216.729233 
	C139.073380,216.726593 139.002182,215.567200 138.964966,214.624466 
z"/>
<path fill="#8E8E8E" opacity="1.000000" stroke="none" 
	d="
M195.991592,314.012421 
	C199.085114,311.965302 202.151932,310.331665 205.493591,314.843719 
	C203.635910,315.540619 202.402832,316.003204 200.828522,316.593811 
	C202.045227,316.876984 202.948120,317.087128 203.911133,317.311249 
	C199.964844,319.876404 198.032150,319.226471 196.027924,314.360657 
	C196.015869,313.983734 195.998871,314.001923 195.991592,314.012421 
z"/>
<path fill="#767249" opacity="1.000000" stroke="none" 
	d="
M170.478210,212.946091 
	C170.015259,212.486404 170.018326,212.069366 170.024979,211.339462 
	C176.165817,211.013779 182.303040,211.000946 188.744202,211.181931 
	C189.043671,211.634064 189.039230,211.892395 189.011322,212.537384 
	C182.973297,212.945587 176.958755,212.967148 170.478210,212.946091 
z"/>
<path fill="#1F1F1F" opacity="1.000000" stroke="none" 
	d="
M182.970901,202.265839 
	C182.021683,203.946289 180.992310,205.570267 179.538651,206.588470 
	C179.222382,206.810013 177.386841,204.862579 176.192505,203.600800 
	C177.942749,200.853363 179.930084,199.329697 182.970901,202.265839 
z"/>
<path fill="#B6B64C" opacity="1.000000" stroke="none" 
	d="
M173.507812,203.251099 
	C172.491150,204.382828 171.095642,205.408829 169.516663,206.690536 
	C168.477676,203.561386 170.183578,202.734467 173.507812,203.251099 
z"/>
<path fill="#E1DC4B" opacity="1.000000" stroke="none" 
	d="
M194.066666,163.475723 
	C196.937454,162.790619 198.723297,163.170670 199.037537,166.830002 
	C199.475876,171.934402 200.539627,176.985092 201.406631,182.510681 
	C194.774216,182.510681 188.278381,182.510681 181.258789,182.510681 
	C180.760300,176.318375 180.272034,170.253220 179.731018,163.532730 
	C182.217987,163.423416 184.127625,163.339478 186.492645,163.662994 
	C188.035492,165.261459 189.122925,166.452484 190.210358,167.643509 
	C191.495789,166.254242 192.781235,164.864990 194.066666,163.475723 
M183.214264,172.014633 
	C182.406845,172.833664 181.599426,173.652695 180.239517,175.032150 
	C186.076721,173.600281 191.137970,178.140991 195.686646,174.584778 
	C195.719452,174.023239 195.752258,173.461700 195.785065,172.900162 
	C191.871490,172.603958 187.957901,172.307770 183.214264,172.014633 
M198.531158,174.833160 
	C198.531158,174.833160 198.451111,175.153259 198.451111,175.153259 
	C198.451111,175.153259 198.613388,174.960220 198.531158,174.833160 
z"/>
<path fill="#8E8E8E" opacity="1.000000" stroke="none" 
	d="
M129.055725,191.434601 
	C127.328522,191.909073 125.561745,191.926025 123.352692,191.921326 
	C122.952263,178.568161 122.936798,165.236084 123.059319,151.905304 
	C123.123917,144.876663 128.275146,139.276581 135.024628,139.565887 
	C128.835739,144.269943 128.792664,150.512589 128.914307,156.980133 
	C129.127380,168.309082 129.000565,179.644424 129.055725,191.434601 
z"/>
<path fill="#696969" opacity="1.000000" stroke="none" 
	d="
M155.978271,173.143906 
	C155.119354,174.089081 154.266281,175.840027 153.400589,175.846298 
	C148.453461,175.882095 143.503311,175.502747 138.209625,174.903763 
	C137.865067,174.543121 137.935486,174.143219 137.961243,173.904419 
	C137.987015,173.665604 138.013306,173.185944 138.463104,173.119995 
	C142.194748,172.944489 145.476593,172.834915 149.204224,172.812576 
	C151.759415,172.981186 153.868851,173.062546 155.978271,173.143906 
z"/>
<path fill="#929999" opacity="1.000000" stroke="none" 
	d="
M156.370239,173.099884 
	C153.868851,173.062546 151.759415,172.981186 149.241959,172.418793 
	C147.620392,171.236740 146.479721,170.170898 145.178101,169.910873 
	C142.494370,169.374741 139.724701,169.268677 136.990402,168.985672 
	C144.493515,169.270142 151.996613,169.554596 159.499725,169.839050 
	C159.623489,170.431763 159.747253,171.024460 159.871017,171.617157 
	C158.834747,172.096725 157.798492,172.576294 156.370239,173.099884 
z"/>
<path fill="#D4D8D7" opacity="1.000000" stroke="none" 
	d="
M136.613251,168.993301 
	C139.724701,169.268677 142.494370,169.374741 145.178101,169.910873 
	C146.479721,170.170898 147.620392,171.236740 148.796173,172.331543 
	C145.476593,172.834915 142.194748,172.944489 138.057404,173.039795 
	C136.111298,172.898026 135.020660,172.770523 133.944458,172.293518 
	C133.966263,171.012268 133.973648,170.080521 133.981049,169.148773 
	C134.732742,169.099487 135.484421,169.050217 136.613251,168.993301 
z"/>
<path fill="#B6B64C" opacity="1.000000" stroke="none" 
	d="
M193.887344,163.166122 
	C192.781235,164.864990 191.495789,166.254242 190.210358,167.643509 
	C189.122925,166.452484 188.035492,165.261459 186.917740,163.737350 
	C189.066849,162.049637 191.195145,160.058624 193.887344,163.166122 
z"/>
<path fill="#B3D4D4" opacity="1.000000" stroke="none" 
	d="
M133.587753,169.083725 
	C133.973648,170.080521 133.966263,171.012268 134.065308,172.663254 
	C135.426315,173.636063 136.680908,173.889633 137.935486,174.143219 
	C137.935486,174.143219 137.865067,174.543121 137.809021,174.738281 
	C135.470123,176.116180 132.911026,177.814545 131.412537,174.260086 
	C130.642960,172.434631 129.532959,169.699692 133.587753,169.083725 
z"/>
<path fill="#8E8E8E" opacity="1.000000" stroke="none" 
	d="
M136.518112,138.484039 
	C136.536194,138.519363 136.500031,138.448715 136.518112,138.484039 
z"/>
<path fill="#B3D4D4" opacity="1.000000" stroke="none" 
	d="
M178.985779,80.054047 
	C180.992905,79.527748 183.834045,78.559792 184.418518,79.322090 
	C185.446106,80.662300 185.666794,83.255287 185.095169,84.940186 
	C184.773117,85.889420 181.925522,86.861046 180.682739,86.440903 
	C177.844696,85.481468 177.539352,83.011688 178.985779,80.054047 
z"/>
<path fill="#C2F2F2" opacity="1.000000" stroke="none" 
	d="
M215.834000,78.890152 
	C218.985367,77.452431 220.830780,78.785744 221.340317,81.389748 
	C221.594193,82.687187 220.835449,84.920967 219.816696,85.529984 
	C218.708817,86.192261 215.480103,85.695847 215.407288,85.297142 
	C215.044601,83.311195 215.416336,81.191132 215.834000,78.890152 
z"/>
<path fill="#7F8282" opacity="1.000000" stroke="none" 
	d="
M135.264435,74.151741 
	C135.264435,74.151741 135.283035,74.552132 135.309570,74.751053 
	C132.538513,74.988953 129.740906,75.027931 126.134537,75.052086 
	C124.620895,75.003647 123.916039,74.970039 123.211182,74.936424 
	C123.902390,73.960602 124.593605,72.984779 125.642540,71.996475 
	C128.711746,72.311470 131.423233,72.638939 134.622406,73.263779 
	C135.161530,73.758011 135.212982,73.954880 135.264435,74.151741 
z"/>
<path fill="#8E8E8E" opacity="1.000000" stroke="none" 
	d="
M123.163994,75.285751 
	C123.916039,74.970039 124.620895,75.003647 125.680786,75.066078 
	C125.765755,75.893768 125.495705,76.692635 125.093414,77.787056 
	C124.346397,77.266762 123.731606,76.450920 123.163994,75.285751 
z"/>
<path fill="#B3D4D4" opacity="1.000000" stroke="none" 
	d="
M258.496826,41.274124 
	C258.929871,38.418518 259.592560,35.815403 260.630371,33.473083 
	C261.031982,34.187359 261.058563,34.640839 261.058167,35.515759 
	C261.123444,45.010010 263.965729,52.793640 271.092072,58.867111 
	C273.611420,61.014244 275.236115,61.190727 277.835876,58.941204 
	C285.188873,52.578823 288.275970,44.593147 287.959656,34.729694 
	C287.993866,33.938351 288.010345,33.486160 288.026794,33.033966 
	C288.499176,33.299156 288.971558,33.564346 289.693451,33.937485 
	C290.810364,45.215267 287.234589,54.473152 278.275513,61.488949 
	C275.646637,63.547604 273.319397,63.452148 270.660583,61.463604 
	C265.418518,57.543015 262.118134,52.381603 260.210236,46.219646 
	C259.724945,44.652412 259.221558,43.090805 258.496826,41.274124 
z"/>
<path fill="#A1BFBF" opacity="1.000000" stroke="none" 
	d="
M261.085144,35.094315 
	C261.058563,34.640839 261.031982,34.187359 260.982910,33.394722 
	C264.179291,31.919384 267.616394,31.173914 270.553741,29.533533 
	C273.311249,27.993610 275.351013,27.658846 278.196686,29.378473 
	C280.936890,31.034348 284.214661,31.800680 287.641541,32.995907 
	C288.010345,33.486160 287.993866,33.938351 287.571838,34.692993 
	C278.797943,30.622362 270.432312,30.713854 262.057648,34.988068 
	C261.786133,35.126637 261.411621,35.063450 261.085144,35.094315 
z"/>
<path fill="#949595" opacity="1.000000" stroke="none" 
	d="
M135.437012,73.949661 
	C135.212982,73.954880 135.161530,73.758011 135.061615,73.259323 
	C135.013168,72.957489 135.017838,72.468460 135.027985,72.224030 
	C135.228607,72.568932 135.419098,73.158264 135.437012,73.949661 
z"/>
<path fill="#FFFFFF" opacity="1.000000" stroke="none" 
	d="
M295.664978,785.348755 
	C293.418701,787.655884 291.522705,787.156738 291.253662,784.538086 
	C291.079041,782.838562 292.511017,780.973999 293.223145,779.183350 
	C294.158875,780.456787 295.191589,781.674255 295.976898,783.034546 
	C296.246307,783.501221 295.896606,784.325317 295.664978,785.348755 
z"/>
<path fill="#FFFFFF" opacity="1.000000" stroke="none" 
	d="
M64.179581,786.220215 
	C62.603909,785.705261 60.456394,785.131409 60.259445,784.161499 
	C59.965588,782.714355 60.873535,780.892273 61.671143,779.451660 
	C61.857758,779.114624 64.549278,779.595764 64.567635,779.823181 
	C64.732071,781.861267 64.556282,783.926697 64.179581,786.220215 
z"/>
<path fill="#FFFFFF" opacity="1.000000" stroke="none" 
	d="
M105.415665,779.453369 
	C109.119835,778.543274 110.042511,780.821411 109.718491,783.243713 
	C109.541077,784.570129 107.709648,785.675171 106.624084,786.880066 
	C105.750488,785.691345 104.475029,784.606995 104.130745,783.280945 
	C103.856613,782.225159 104.719414,780.874268 105.415665,779.453369 
z"/>
<path fill="#FFFFFF" opacity="1.000000" stroke="none" 
	d="
M200.040741,782.187866 
	C201.386078,780.930725 202.708359,780.073547 204.030640,779.216370 
	C204.628555,780.777527 205.723541,782.362183 205.651352,783.891724 
	C205.602478,784.927612 203.912720,785.886108 202.956848,786.879211 
	C201.977142,785.448792 200.997421,784.018311 200.040741,782.187866 
z"/>
<path fill="#FFFFFF" opacity="1.000000" stroke="none" 
	d="
M166.624298,778.571045 
	C167.303421,779.503296 168.063690,780.340698 167.907486,780.938782 
	C167.385437,782.937500 166.535446,784.850464 165.811066,786.796326 
	C164.906586,786.039856 163.275101,785.321533 163.233124,784.519897 
	C163.104431,782.062195 161.513809,778.500549 166.624298,778.571045 
z"/>
<path fill="#FFFFFF" opacity="1.000000" stroke="none" 
	d="
M186.153687,786.028381 
	C184.379135,785.705383 181.636719,785.163208 181.592361,784.452576 
	C181.475037,782.573059 182.525986,780.620605 183.112000,778.697144 
	C184.274704,779.288269 186.164612,779.648682 186.441238,780.520874 
	C186.941086,782.096802 186.477158,783.978455 186.153687,786.028381 
z"/>
<path fill="#767249" opacity="1.000000" stroke="none" 
	d="
M183.629303,172.013107 
	C187.957901,172.307770 191.871490,172.603958 195.785065,172.900162 
	C195.752258,173.461700 195.719452,174.023239 195.686646,174.584778 
	C191.137970,178.140991 186.076721,173.600281 180.239517,175.032150 
	C181.599426,173.652695 182.406845,172.833664 183.629303,172.013107 
z"/>
<path fill="#767249" opacity="1.000000" stroke="none" 
	d="
M198.572266,174.896698 
	C198.613388,174.960220 198.451111,175.153259 198.451111,175.153259 
	C198.451111,175.153259 198.531158,174.833160 198.572266,174.896698 
z"/>
<path fill="#707170" opacity="1.000000" stroke="none" 
	d="
M137.961243,173.904419 
	C136.680908,173.889633 135.426315,173.636063 134.050888,173.012756 
	C135.020660,172.770523 136.111298,172.898026 137.607605,173.105743 
	C138.013306,173.185944 137.987015,173.665604 137.961243,173.904419 
z"/>
<path fill="#949595" opacity="1.000000" stroke="none" 
	d="
M261.058167,35.515759 
	C261.411621,35.063450 261.786133,35.126637 262.057648,34.988068 
	C270.432312,30.713854 278.797943,30.622362 287.554077,35.032146 
	C288.275970,44.593147 285.188873,52.578823 277.835876,58.941204 
	C275.236115,61.190727 273.611420,61.014244 271.092072,58.867111 
	C263.965729,52.793640 261.123444,45.010010 261.058167,35.515759 
z"/>
</svg>