<?xml version="1.0" standalone="no"?>
<!DOCTYPE svg PUBLIC "-//W3C//DTD SVG 20010904//EN"
 "http://www.w3.org/TR/2001/REC-SVG-20010904/DTD/svg10.dtd">
<svg version="1.0" xmlns="http://www.w3.org/2000/svg"
 width="354.000000pt" height="798.000000pt" viewBox="0 0 354.000000 798.000000"
 preserveAspectRatio="xMidYMid meet">

<g transform="translate(0.000000,798.000000) scale(0.100000,-0.100000)"
fill="#000000" stroke="none">
<path d="M747 7345 c-5 -12 3 -15 49 -15 40 0 55 4 52 13 -7 19 -94 22 -101 2z"/>
<path d="M915 7352 c-17 -18 10 -22 141 -22 112 0 145 3 141 13 -3 9 -41 12
-140 13 -75 1 -139 -1 -142 -4z"/>
<path d="M1500 7346 c0 -12 12 -16 51 -16 66 0 62 24 -4 28 -37 2 -47 0 -47
-12z"/>
<path d="M1837 7353 c-17 -17 -3 -23 54 -23 44 0 60 3 57 13 -5 13 -99 22
-111 10z"/>
<path d="M1235 7250 c3 -5 28 -10 56 -10 27 0 49 5 49 10 0 6 -25 10 -56 10
-34 0 -53 -4 -49 -10z"/>
<path d="M1390 7250 c-11 -7 -7 -10 18 -10 17 0 32 5 32 10 0 13 -30 13 -50 0z"/>
<path d="M1724 7250 c-12 -5 -25 -14 -30 -21 -5 -9 -2 -10 12 -4 10 4 34 10
52 13 18 2 35 8 38 13 7 11 -44 11 -72 -1z"/>
<path d="M2071 7243 c-17 -9 -31 -20 -31 -25 0 -4 13 -2 30 7 21 11 60 15 144
15 63 0 118 4 121 10 10 17 -228 10 -264 -7z"/>
<path d="M2435 7250 c-19 -7 -53 -40 -42 -40 2 0 18 7 33 15 37 19 117 19 154
0 17 -9 30 -11 30 -6 0 29 -125 52 -175 31z"/>
<path d="M2158 7103 c7 -3 16 -2 19 1 4 3 -2 6 -13 5 -11 0 -14 -3 -6 -6z"/>
<path d="M1252 6628 c-66 -41 -72 -69 -72 -328 0 -221 1 -230 19 -230 19 0 20
10 23 223 3 193 5 227 21 250 21 32 51 53 91 63 29 7 29 7 -10 -29 l-39 -35
-3 -236 -3 -236 505 0 506 0 0 235 c0 261 -2 273 -63 319 l-34 26 -454 -1
c-438 -1 -455 -1 -487 -21z m624 -263 c-8 -9 -13 -22 -10 -30 9 -22 42 -18 56
5 7 11 23 20 35 20 18 0 23 -7 28 -47 3 -27 10 -70 16 -96 5 -26 9 -51 9 -55
0 -4 -47 -6 -104 -4 l-103 3 -7 46 c-3 25 -6 70 -6 99 l0 54 34 0 c19 0 38 5
41 10 3 6 11 10 16 10 6 0 4 -7 -5 -15z m-353 -71 c48 -4 67 -10 67 -20 0 -11
-26 -14 -132 -15 -78 -1 -123 -4 -108 -9 21 -6 22 -8 8 -14 -34 -15 -53 -3
-56 37 l-3 39 78 -6 c43 -4 108 -9 146 -12z"/>
<path d="M1808 6255 c2 -14 8 -25 12 -25 4 0 10 11 12 25 4 19 1 25 -12 25
-13 0 -16 -6 -12 -25z"/>
<path d="M1845 6260 c-2 -3 0 -12 5 -20 7 -11 12 -11 22 -2 11 8 18 8 25 1 13
-13 36 -2 30 14 -4 12 -75 18 -82 7z"/>
<path d="M1940 6250 c0 -11 7 -20 15 -20 8 0 15 9 15 20 0 11 -7 20 -15 20 -8
0 -15 -9 -15 -20z"/>
<path d="M1180 5880 c0 -152 2 -173 20 -202 l20 -33 0 203 c0 195 -1 202 -20
202 -19 0 -20 -7 -20 -170z"/>
<path d="M1280 5831 l0 -219 34 -22 c45 -27 72 -93 56 -135 -10 -27 -9 -32 18
-55 39 -33 52 -60 52 -107 0 -37 -31 -103 -49 -103 -5 0 -1 -20 7 -44 14 -38
14 -49 2 -86 -15 -46 -50 -78 -92 -87 l-27 -5 -3 -127 -3 -126 -25 0 c-23 0
-25 4 -28 58 -3 49 -6 58 -20 55 -20 -4 -27 -51 -17 -115 4 -29 17 -54 39 -78
l33 -35 478 0 477 0 39 39 39 39 0 686 0 686 -505 0 -505 0 0 -219z m610 33
l0 -105 -102 3 -103 3 -3 96 -3 97 35 4 c27 3 36 0 39 -14 11 -39 67 -29 67
11 0 13 7 16 35 13 l35 -4 0 -104z m-392 20 c68 -5 92 -10 92 -20 0 -13 -48
-17 -230 -16 -23 0 -27 -1 -12 -5 31 -6 18 -23 -19 -23 -26 0 -29 3 -29 33 0
45 7 50 60 43 25 -3 87 -8 138 -12z m620 -874 c30 0 -1 -101 -36 -115 -8 -3
-23 2 -33 11 -23 20 -44 83 -33 94 13 12 46 19 69 14 11 -2 26 -4 33 -4z
m-653 -110 c3 -6 -1 -13 -10 -16 -19 -8 -30 0 -20 15 8 14 22 14 30 1z m240 1
c7 -12 -12 -24 -25 -16 -11 7 -4 25 10 25 5 0 11 -4 15 -9z m-125 -16 c0 -11
11 -15 40 -15 29 0 40 -4 40 -15 0 -8 -6 -15 -14 -15 -9 0 -12 -7 -9 -20 5
-17 0 -20 -27 -20 -26 0 -30 3 -25 19 8 25 -3 48 -26 54 -22 6 -36 -8 -17 -17
10 -4 10 -8 2 -11 -7 -3 -10 -15 -7 -25 4 -16 0 -20 -23 -20 -28 0 -29 2 -29
50 l0 50 48 0 c35 0 47 -4 47 -15z m240 -12 c0 -16 3 -38 6 -50 6 -21 3 -23
-32 -23 -50 0 -67 11 -62 41 2 18 10 25 30 27 19 2 25 8 21 18 -3 9 2 14 16
14 16 0 21 -6 21 -27z m-350 -39 c0 -30 -3 -35 -21 -32 -16 2 -22 11 -24 36
-2 28 0 32 21 32 21 0 24 -5 24 -36z m240 11 c0 -14 1 -28 3 -32 1 -5 -8 -9
-20 -11 -20 -3 -23 1 -23 32 0 29 4 36 20 36 15 0 20 -7 20 -25z m233 -12 c-3
-21 -12 -44 -21 -50 -19 -15 -58 -17 -67 -3 -3 6 3 10 14 10 11 0 23 5 26 10
4 6 -5 10 -20 10 -14 0 -28 7 -31 15 -10 26 16 45 62 45 l43 0 -6 -37z m95 15
c3 -14 -4 -18 -25 -19 l-28 -1 30 -7 c29 -7 29 -7 8 -15 -46 -15 -87 20 -62
51 17 20 73 13 77 -9z"/>
<path d="M1690 5869 c0 -4 11 -6 25 -6 14 0 25 3 25 8 0 5 -11 8 -25 7 -14 -1
-25 -5 -25 -9z"/>
<path d="M1756 5871 c-3 -4 24 -9 59 -10 36 -1 65 2 65 7 0 11 -118 14 -124 3z"/>
<path d="M1765 4841 c-6 -11 9 -23 19 -14 9 9 7 23 -3 23 -6 0 -12 -4 -16 -9z"/>
<path d="M1880 4841 c0 -6 5 -13 10 -16 6 -3 10 1 10 9 0 9 -4 16 -10 16 -5 0
-10 -4 -10 -9z"/>
<path d="M1060 4121 l0 -111 70 0 c63 0 70 2 70 20 0 17 -7 20 -45 20 l-44 0
-3 88 c-3 82 -4 87 -25 90 -23 3 -23 2 -23 -107z"/>
<path d="M1801 4218 c-59 -32 -44 -89 29 -113 37 -12 50 -21 48 -33 -4 -22
-51 -27 -68 -8 -16 20 -50 21 -50 2 0 -8 12 -24 28 -36 21 -18 36 -21 71 -17
93 10 97 101 6 123 -39 9 -55 22 -48 40 6 17 44 19 60 3 6 -6 21 -9 33 -7 22
3 22 3 4 26 -23 27 -80 38 -113 20z"/>
<path d="M1420 4190 c0 -11 -4 -20 -10 -20 -5 0 -10 -7 -10 -15 0 -8 5 -15 10
-15 6 0 10 -22 10 -49 0 -56 17 -81 56 -81 27 0 34 27 9 36 -10 4 -15 20 -15
50 0 32 4 44 15 44 8 0 15 7 15 15 0 8 -7 15 -15 15 -8 0 -15 9 -15 20 0 15
-7 20 -25 20 -18 0 -25 -5 -25 -20z"/>
<path d="M1970 4190 c0 -11 -4 -20 -10 -20 -5 0 -10 -7 -10 -15 0 -8 5 -15 10
-15 6 0 10 -22 10 -49 0 -56 17 -81 56 -81 27 0 34 27 9 36 -10 4 -15 20 -15
50 0 32 4 44 15 44 8 0 15 7 15 15 0 8 -7 15 -15 15 -8 0 -15 9 -15 20 0 15
-7 20 -25 20 -18 0 -25 -5 -25 -20z"/>
<path d="M2400 4190 c0 -11 -4 -20 -10 -20 -5 0 -10 -7 -10 -15 0 -8 5 -15 10
-15 6 0 10 -22 10 -49 0 -56 17 -81 56 -81 27 0 34 27 9 36 -10 4 -15 20 -15
50 0 32 4 44 15 44 8 0 15 7 15 15 0 8 -7 15 -15 15 -8 0 -15 9 -15 20 0 15
-7 20 -25 20 -18 0 -25 -5 -25 -20z"/>
<path d="M1253 4155 c-39 -27 -34 -113 7 -135 32 -17 79 -11 102 12 21 21 22
23 4 26 -10 2 -29 -2 -42 -9 -19 -10 -26 -10 -39 1 -27 22 -16 30 40 30 47 0
55 3 55 19 0 10 -9 30 -21 45 -24 30 -71 35 -106 11z m77 -30 c11 -13 7 -15
-24 -15 -34 0 -44 8 -29 23 11 12 40 8 53 -8z"/>
<path d="M1540 4156 c-15 -19 -9 -57 10 -67 8 -4 27 -10 43 -14 15 -3 27 -12
27 -20 0 -17 -31 -20 -47 -4 -6 6 -21 9 -34 7 l-24 -3 23 -22 c39 -40 132 -21
132 27 0 22 -12 31 -59 45 -19 6 -36 16 -39 24 -4 11 5 12 42 7 46 -7 56 0 34
22 -17 17 -93 15 -108 -2z"/>
<path d="M2094 4149 l-19 -22 48 7 c39 6 47 5 47 -8 0 -9 -12 -18 -27 -22 -55
-12 -61 -15 -65 -32 -11 -48 33 -78 76 -52 14 9 21 10 24 1 2 -6 12 -11 23
-11 17 0 19 8 19 64 0 77 -14 96 -69 96 -26 0 -44 -7 -57 -21z m74 -86 c-4
-22 -48 -31 -48 -10 0 19 10 27 32 27 13 0 18 -6 16 -17z"/>
<path d="M2260 4090 c0 -73 2 -80 20 -80 17 0 20 7 20 44 0 60 8 76 36 76 17
0 24 6 24 20 0 25 -35 27 -49 3 -10 -17 -10 -17 -11 0 0 10 -8 17 -20 17 -18
0 -20 -7 -20 -80z"/>
<path d="M883 3 c488 -2 1286 -2 1775 0 488 1 88 2 -888 2 -976 0 -1376 -1
-887 -2z"/>
</g>
</svg>
